# Blender 4.4.3
# www.blender.org
mtllib lamp.mtl
o Cube
v 0.634705 0.125046 1.984793
v 0.803135 0.014255 1.797676
v 0.634705 0.125046 2.388241
v 0.803135 0.014255 2.575358
v 0.271550 0.125046 1.984793
v 0.103121 0.014255 1.797676
v 0.271550 0.125046 2.388241
v 0.103121 0.014255 2.575358
v 0.803135 0.125046 2.575358
v 0.803135 0.125046 1.797676
v 0.103121 0.125046 2.575358
v 0.103121 0.125046 1.797676
v 0.709917 0.125046 2.186517
v 0.453128 0.125046 2.471798
v 0.196338 0.125046 2.186517
v 0.453128 0.125046 1.901237
v 0.661780 0.382445 2.186517
v 0.709917 0.212590 2.186517
v 0.634705 0.212590 1.984793
v 0.453128 0.212590 2.471798
v 0.634705 0.212590 2.388241
v 0.196338 0.212590 2.186517
v 0.271550 0.212590 2.388241
v 0.453128 0.212590 1.901237
v 0.271550 0.212590 1.984793
v 0.661780 0.382445 2.186517
v 0.600667 0.382445 2.022608
v 0.453128 0.382445 2.418320
v 0.600667 0.382445 2.350427
v 0.244475 0.382445 2.186517
v 0.305588 0.382445 2.350427
v 0.453128 0.382445 1.954714
v 0.305588 0.382445 2.022608
v 0.661780 0.382445 2.186517
v 0.600667 0.382445 2.022608
v 0.453128 0.382445 2.418320
v 0.600667 0.382445 2.350427
v 0.244475 0.382445 2.186517
v 0.305588 0.382445 2.350427
v 0.453128 0.382445 1.954714
v 0.305588 0.382445 2.022608
v 0.661780 0.415668 2.186517
v 0.600667 0.382445 2.022608
v 0.453128 0.382445 2.418320
v 0.600667 0.382445 2.350427
v 0.244475 0.382445 2.186517
v 0.305588 0.382445 2.350427
v 0.453128 0.382445 1.954714
v 0.305588 0.382445 2.022608
v 0.608245 0.415668 2.186517
v 0.600667 0.415668 2.022608
v 0.453128 0.415668 2.418320
v 0.600667 0.415668 2.350427
v 0.244475 0.415668 2.186517
v 0.305588 0.415668 2.350427
v 0.453128 0.415668 1.954714
v 0.305588 0.415668 2.022608
v 0.608245 4.328283 2.186517
v 0.562813 0.415668 2.064663
v 0.453128 0.415668 2.358846
v 0.562813 0.415668 2.308372
v 0.298010 0.415668 2.186517
v 0.343443 0.415668 2.308372
v 0.453128 0.415668 2.014189
v 0.343443 0.415668 2.064663
v 0.775803 4.328283 2.186516
v 0.562813 4.328283 2.064662
v 0.453128 4.328283 2.358845
v 0.562813 4.328283 2.308371
v 0.298010 4.328283 2.186517
v 0.343443 4.328283 2.308371
v 0.453128 4.328283 2.014188
v 0.343443 4.328283 2.064662
v 0.775803 4.382649 2.186516
v 0.681294 4.328283 1.933035
v 0.453127 4.328283 2.544993
v 0.681294 4.328283 2.439998
v 0.130452 4.328283 2.186516
v 0.224961 4.328283 2.439998
v 0.453128 4.328283 1.828039
v 0.224961 4.328283 1.933035
v 0.808837 4.503025 2.186516
v 0.681294 4.382649 1.933035
v 0.453127 4.382649 2.544993
v 0.681294 4.382649 2.439998
v 0.130452 4.382649 2.186516
v 0.224961 4.382649 2.439998
v 0.453128 4.382649 1.828039
v 0.224961 4.382649 1.933035
v 0.808837 4.555794 2.186516
v 0.704652 4.503025 1.907084
v 0.453127 4.503025 2.581693
v 0.704652 4.503025 2.465948
v 0.097418 4.503025 2.186516
v 0.201603 4.503025 2.465948
v 0.453128 4.503025 1.791340
v 0.201603 4.503025 1.907084
v 0.889321 4.555794 2.186516
v 0.704652 4.555794 1.907084
v 0.453127 4.555794 2.581693
v 0.704652 4.555794 2.465948
v 0.097418 4.555794 2.186516
v 0.201603 4.555794 2.465948
v 0.453128 4.555794 1.791340
v 0.201603 4.555794 1.907084
v 0.889321 4.642885 2.186516
v 0.761563 4.555794 1.843859
v 0.453127 4.555794 2.671107
v 0.761563 4.555794 2.529173
v 0.016934 4.555794 2.186516
v 0.144692 4.555794 2.529173
v 0.453128 4.555794 1.701926
v 0.144692 4.555794 1.843859
v 0.822017 4.709487 2.186516
v 0.761563 4.642885 1.843859
v 0.453127 4.642885 2.671107
v 0.761563 4.642885 2.529173
v 0.016934 4.642885 2.186516
v 0.144692 4.642885 2.529173
v 0.453128 4.642885 1.701926
v 0.144692 4.642885 1.843859
v 0.762173 4.792032 2.186516
v 0.713972 4.709487 1.896731
v 0.453127 4.709487 2.596335
v 0.713972 4.709487 2.476302
v 0.084238 4.709487 2.186516
v 0.192283 4.709487 2.476302
v 0.453128 4.709487 1.776698
v 0.192283 4.709487 1.896731
v 0.702433 4.886311 2.186516
v 0.671656 4.792032 1.943742
v 0.453127 4.792032 2.529851
v 0.671656 4.792032 2.429291
v 0.144082 4.792032 2.186516
v 0.234599 4.792032 2.429291
v 0.453128 4.792032 1.843181
v 0.234599 4.792032 1.943742
v 0.311164 5.531391 2.296867
v 0.629413 4.886311 1.990672
v 0.453127 4.886311 2.463483
v 0.629413 4.886311 2.382361
v 0.203822 4.886311 2.186516
v 0.276842 4.886311 2.382361
v 0.453128 4.886311 1.909550
v 0.276842 4.886311 1.990672
v 0.453128 4.886311 2.186516
v 0.250395 5.936857 2.354569
v 0.311164 5.531391 2.027270
v 0.250395 5.936857 1.969568
v 0.595091 5.531391 2.296867
v 0.655860 5.936857 2.354569
v 0.595091 5.531391 2.027270
v 0.655860 5.936857 1.969568
v 0.250395 5.936857 2.364801
v 0.250395 5.936857 1.959336
v 0.655860 5.936857 1.959336
v 0.655860 5.936857 2.364801
v 0.326904 5.533941 2.026907
v 0.327721 5.534074 2.297249
v 0.267756 5.934174 2.354188
v 0.266899 5.934307 1.969931
v 0.595541 5.534390 2.047908
v 0.655411 5.933857 1.991059
v 0.595541 5.534390 2.276230
v 0.655411 5.933857 2.333078
v 0.639356 5.934307 1.969931
v 0.579352 5.533941 2.026907
v 0.578535 5.534074 2.297249
v 0.638499 5.934174 2.354188
v 0.250738 5.934570 1.985951
v 0.310821 5.533678 2.043002
v 0.595091 5.531391 2.027270
v 0.655860 5.936857 1.969568
v 0.310821 5.533678 2.281135
v 0.250738 5.934570 2.338187
v 0.655860 5.936857 2.354569
v 0.595091 5.531391 2.296867
v 0.311164 5.531391 2.027270
v 0.311164 5.531391 2.296867
v 0.250395 5.936857 2.354569
v 0.250395 5.936857 1.969568
v 0.655411 5.933857 1.991059
v 0.595541 5.534390 2.047908
v 0.595541 5.534390 2.276230
v 0.655411 5.933857 2.333078
v 0.266899 5.934307 1.969931
v 0.326904 5.533941 2.026907
v 0.579352 5.533941 2.026907
v 0.639356 5.934307 1.969931
v 0.327721 5.534074 2.297249
v 0.267756 5.934174 2.354188
v 0.638499 5.934174 2.354188
v 0.578535 5.534074 2.297249
v 0.310821 5.533678 2.043002
v 0.310821 5.533678 2.281135
v 0.250738 5.934570 2.338187
v 0.250738 5.934570 1.985951
vn 1.0000 -0.0000 -0.0000
vn -0.0000 -0.0000 1.0000
vn -1.0000 -0.0000 -0.0000
vn -0.0000 -0.0000 -1.0000
vn 0.9370 -0.0000 0.3494
vn -0.0000 -1.0000 -0.0000
vn -0.0000 1.0000 -0.0000
vn -0.9370 -0.0000 -0.3494
vn 0.4180 -0.0000 0.9084
vn -0.4180 -0.0000 -0.9084
vn -0.4019 0.2750 -0.8734
vn -0.4019 0.2750 0.8734
vn 0.4019 0.2750 -0.8734
vn 0.9056 0.2566 -0.3377
vn -0.9370 -0.0000 0.3494
vn 0.4180 -0.0000 -0.9084
vn 0.9370 -0.0000 -0.3494
vn -0.4180 -0.0000 0.9084
vn 0.4019 0.2750 0.8734
vn -0.9056 0.2566 -0.3377
vn 0.9056 0.2566 0.3377
vn -0.9056 0.2566 0.3377
vn 0.4029 -0.2669 -0.8755
vn 0.9075 -0.2490 -0.3383
vn -0.9075 -0.2490 0.3383
vn 0.9075 -0.2490 0.3383
vn -0.4029 -0.2669 0.8755
vn -0.4029 -0.2669 -0.8755
vn 0.4029 -0.2669 0.8755
vn -0.9075 -0.2490 -0.3383
vn 0.6804 0.6876 -0.2537
vn -0.6804 0.6876 0.2537
vn 0.6804 0.6876 0.2537
vn -0.6804 0.6876 -0.2537
vn -0.7751 0.5619 0.2890
vn 0.7751 0.5619 0.2890
vn -0.7751 0.5619 -0.2890
vn 0.3374 0.5905 0.7331
vn 0.2927 0.7140 -0.6360
vn -0.2927 0.7140 0.6360
vn -0.2927 0.7140 -0.6360
vn 0.2927 0.7140 0.6360
vn 0.3522 0.5388 0.7653
vn -0.3522 0.5388 -0.7653
vn -0.3522 0.5388 0.7653
vn 0.3522 0.5388 -0.7653
vn 0.7751 0.5619 -0.2890
vn 0.3374 0.5905 -0.7331
vn -0.3374 0.5905 0.7331
vn -0.3374 0.5905 -0.7331
vn -0.8057 0.5105 -0.3004
vn 0.8057 0.5105 0.3004
vn -0.8057 0.5105 0.3004
vn 0.8057 0.5105 -0.3004
vn -0.0000 -0.1410 0.9900
vt 0.703776 0.000000
vt 0.703776 0.188668
vt 0.675500 0.189168
vt 0.675500 0.000500
vt 0.703768 0.546976
vt 0.703768 0.712651
vt 0.675500 0.713302
vt 0.675500 0.547627
vt 0.703776 0.189168
vt 0.703776 0.377836
vt 0.675500 0.378336
vt 0.675500 0.189667
vt 0.703753 0.378336
vt 0.703753 0.546303
vt 0.675500 0.546976
vt 0.675500 0.379009
vt 0.586301 0.342154
vt 0.608644 0.341759
vt 0.609720 0.396746
vt 0.587377 0.397141
vt 0.370882 0.232134
vt 0.370882 0.430927
vt 0.191943 0.430927
vt 0.191943 0.232134
vt 0.327828 0.478758
vt 0.370882 0.430927
vt 0.370882 0.629720
vt 0.327828 0.581889
vt 0.347054 0.530324
vt 0.234997 0.478758
vt 0.191943 0.430927
vt 0.281413 0.457399
vt 0.234997 0.581889
vt 0.191943 0.629720
vt 0.215772 0.530324
vt 0.281413 0.603248
vt 0.586301 0.732145
vt 0.608644 0.731751
vt 0.609720 0.786738
vt 0.587377 0.787132
vt 0.612319 0.431618
vt 0.589976 0.432013
vt 0.587773 0.787664
vt 0.610098 0.787132
vt 0.608626 0.823354
vt 0.586301 0.823886
vt 0.654080 0.797592
vt 0.652884 0.827025
vt 0.608638 0.909722
vt 0.652808 0.913878
vt 0.653865 0.955342
vt 0.609938 0.960752
vt 0.654080 0.868396
vt 0.610098 0.874270
vt 0.609720 0.298869
vt 0.653558 0.310014
vt 0.652684 0.344864
vt 0.587377 0.689255
vt 0.609720 0.688860
vt 0.587773 0.874802
vt 0.587377 0.299263
vt 0.586301 0.910237
vt 0.587601 0.961266
vt 0.733083 0.548484
vt 0.609938 0.874802
vt 0.653865 0.885505
vt 0.652684 0.734856
vt 0.653558 0.779535
vt 0.653558 0.389544
vt 0.653558 0.700005
vt 0.743120 0.208658
vt 0.734640 0.208642
vt 0.733083 0.180271
vt 0.741564 0.180287
vt 0.734280 0.368055
vt 0.742752 0.367853
vt 0.741556 0.397285
vt 0.733083 0.397487
vt 0.741562 0.480356
vt 0.733083 0.480336
vt 0.733083 0.438858
vt 0.741562 0.438879
vt 0.742752 0.438656
vt 0.734280 0.438858
vt 0.461004 0.845483
vt 0.466315 0.859728
vt 0.444551 0.881613
vt 0.431729 0.874920
vt 0.502405 0.956524
vt 0.497094 0.942279
vt 0.518858 0.920395
vt 0.531680 0.927087
vt 0.518858 0.887151
vt 0.531680 0.882371
vt 0.444551 0.914856
vt 0.431729 0.919637
vt 0.733083 0.323174
vt 0.741562 0.323024
vt 0.742437 0.367703
vt 0.733958 0.367853
vt 0.743120 0.253346
vt 0.734640 0.253330
vt 0.733958 0.288323
vt 0.742437 0.288173
vt 0.741564 0.288173
vt 0.733083 0.288157
vt 0.000000 0.998892
vt 0.000000 0.000153
vt 0.025893 0.001261
vt 0.025893 1.000000
vt 0.080205 0.998739
vt 0.080205 0.000000
vt 0.106099 0.001108
vt 0.106099 0.999847
vt 0.059115 0.001197
vt 0.059115 0.999937
vt 0.139321 0.001044
vt 0.139321 0.999784
vt 0.461004 0.953438
vt 0.466315 0.939985
vt 0.502405 0.848569
vt 0.497094 0.862022
vt 0.471862 0.099713
vt 0.431729 0.114677
vt 0.431729 0.045524
vt 0.471862 0.066470
vt 0.546168 0.072009
vt 0.586301 0.057045
vt 0.586301 0.126198
vt 0.546168 0.105252
vt 0.477002 0.000000
vt 0.493626 0.044586
vt 0.541028 0.171722
vt 0.524404 0.127136
vt 0.161174 0.999467
vt 0.161174 0.001410
vt 0.191943 0.001254
vt 0.191943 0.999310
vt 0.400894 0.998636
vt 0.400894 0.000075
vt 0.431729 0.000000
vt 0.431729 0.998561
vt 0.139321 0.998056
vt 0.139321 0.000000
vt 0.646608 0.052888
vt 0.632731 0.052861
vt 0.630324 0.008986
vt 0.644201 0.009012
vt 0.588151 0.577102
vt 0.602015 0.576772
vt 0.600165 0.622288
vt 0.586301 0.622618
vt 0.733083 0.780603
vt 0.719208 0.780569
vt 0.719208 0.716426
vt 0.733083 0.716459
vt 0.602015 0.686268
vt 0.588151 0.686598
vt 0.524404 0.046880
vt 0.541028 0.004772
vt 0.493626 0.124842
vt 0.477002 0.166950
vt 0.630216 0.618330
vt 0.632255 0.688860
vt 0.630324 0.175828
vt 0.599771 0.183949
vt 0.602424 0.124576
vt 0.632731 0.121969
vt 0.601529 0.440968
vt 0.631917 0.432251
vt 0.630426 0.491664
vt 0.600176 0.494864
vt 0.602424 0.048392
vt 0.586301 0.495109
vt 0.601529 0.563959
vt 0.587653 0.564204
vt 0.646608 0.121996
vt 0.587653 0.441213
vt 0.644201 0.175855
vt 0.586301 0.183923
vt 0.588954 0.124550
vt 0.645385 0.432013
vt 0.643894 0.491426
vt 0.588954 0.048367
vt 0.645385 0.567595
vt 0.631917 0.567833
vt 0.688968 0.784046
vt 0.688967 0.713335
vt 0.632255 0.568154
vt 0.599771 0.000026
vt 0.381616 0.147833
vt 0.400894 0.155020
vt 0.339693 0.225683
vt 0.331709 0.205457
vt 0.261128 0.026677
vt 0.253143 0.006451
vt 0.339693 -0.000000
vt 0.331709 0.021416
vt 0.253143 0.232134
vt 0.261128 0.210718
vt 0.400894 0.061539
vt 0.381616 0.071600
vt 0.643673 0.618010
vt 0.645712 0.688539
vt 0.675500 0.784013
vt 0.675500 0.713303
vt 0.645712 0.567833
vt 0.586301 -0.000000
vt 0.434230 0.697466
vt 0.456439 0.696937
vt 0.453939 0.758466
vt 0.431729 0.758995
vt 0.675500 0.270713
vt 0.653273 0.270658
vt 0.653273 0.183949
vt 0.675500 0.184003
vt 0.456439 0.844954
vt 0.434230 0.845483
vt 0.433557 0.172115
vt 0.455785 0.171722
vt 0.453957 0.244578
vt 0.431729 0.244971
vt 0.211220 0.084301
vt 0.191943 0.077114
vt 0.211220 0.160534
vt 0.191943 0.170595
vt 0.691620 0.964317
vt 0.675500 0.955903
vt 0.675500 0.876847
vt 0.691620 0.870836
vt 0.733083 0.086790
vt 0.749204 0.095204
vt 0.749204 0.174261
vt 0.733083 0.180271
vt 0.471918 0.249690
vt 0.473464 0.328681
vt 0.455785 0.337981
vt 0.453956 0.603141
vt 0.471918 0.608253
vt 0.473464 0.687244
vt 0.455785 0.696545
vt 0.433557 0.338374
vt 0.460199 0.397217
vt 0.437971 0.397610
vt 0.431729 0.603534
vt 0.433557 0.696937
vt 0.433557 0.530678
vt 0.455785 0.530285
vt 0.473464 0.546639
vt 0.495137 0.561074
vt 0.493841 0.612693
vt 0.493842 0.254130
vt 0.495137 0.320307
vt 0.495137 0.678870
vt 0.690938 0.865434
vt 0.675500 0.860632
vt 0.675500 0.799140
vt 0.690938 0.792036
vt 0.472241 0.764636
vt 0.474355 0.837779
vt 0.635295 0.263381
vt 0.635295 0.190051
vt 0.733083 -0.000000
vt 0.750446 0.005402
vt 0.750446 0.078800
vt 0.733083 0.086790
vt 0.708302 0.870836
vt 0.708302 0.784046
vt 0.610722 0.298869
vt 0.586301 0.284274
vt 0.588427 0.250416
vt 0.613357 0.256897
vt 0.496234 0.726387
vt 0.521103 0.740076
vt 0.519674 0.775243
vt 0.494462 0.769980
vt 0.588427 0.200857
vt 0.613358 0.195462
vt 0.521103 0.824675
vt 0.496234 0.831257
vt 0.473464 0.188075
vt 0.495137 0.202511
vt 0.474355 0.712601
vt 0.491442 0.463947
vt 0.516175 0.530285
vt 0.466708 0.526598
vt 0.431729 0.486211
vt 0.551154 0.441684
vt 0.551154 0.495113
vt 0.516175 0.401297
vt 0.466708 0.397610
vt 0.431729 0.432782
vt 0.518758 0.617072
vt 0.519803 0.670456
vt 0.518758 0.258509
vt 0.519803 0.311893
vt 0.519803 0.575431
vt 0.519803 0.216868
vt 0.733774 0.544529
vt 0.733774 0.484346
vt 0.733083 0.480356
vt 0.733083 0.548484
s 0
usemtl base
f 10/1/1 9/2/1 4/3/1 2/4/1
f 9/5/2 11/6/2 8/7/2 4/8/2
f 11/9/3 12/10/3 6/11/3 8/12/3
f 12/13/4 10/14/4 2/15/4 6/16/4
f 13/17/5 18/18/5 21/19/5 3/20/5
f 8/21/6 6/22/6 2/23/6 4/24/6
f 3/25/7 9/26/7 10/27/7 1/28/7 13/29/7
f 7/30/7 11/31/7 9/26/7 3/25/7 14/32/7
f 5/33/7 12/34/7 11/31/7 7/30/7 15/35/7
f 1/28/7 10/27/7 12/34/7 5/33/7 16/36/7
f 15/37/8 22/38/8 25/39/8 5/40/8
f 3/20/9 21/19/9 20/41/9 14/42/9
f 5/43/10 25/44/10 24/45/10 16/46/10
f 25/44/11 33/47/11 32/48/11 24/45/11
f 20/49/12 28/50/12 31/51/12 23/52/12
f 24/45/13 32/48/13 27/53/13 19/54/13
f 19/55/14 27/56/14 17/57/14 18/18/14
f 7/58/15 23/59/15 22/38/15 15/37/15
f 16/46/16 24/45/16 19/54/16 1/60/16
f 1/61/17 19/55/17 18/18/17 13/17/17
f 14/62/18 20/49/18 23/52/18 7/63/18
f 27/64/7 35/64/7 26/64/7 17/64/7
f 31/64/7 39/64/7 38/64/7 30/64/7
f 17/64/7 26/64/7 37/64/7 29/64/7
f 30/64/7 38/64/7 41/64/7 33/64/7
f 21/65/19 29/66/19 28/50/19 20/49/19
f 22/38/20 30/67/20 33/68/20 25/39/20
f 18/18/21 17/57/21 29/69/21 21/19/21
f 23/59/22 31/70/22 30/67/22 22/38/22
f 39/64/7 47/64/7 46/64/7 38/64/7
f 26/64/7 34/64/7 45/64/7 37/64/7
f 38/64/7 46/64/7 49/64/7 41/64/7
f 37/64/7 45/64/7 44/64/7 36/64/7
f 32/64/7 40/64/7 35/64/7 27/64/7
f 28/64/7 36/64/7 39/64/7 31/64/7
f 33/64/7 41/64/7 40/64/7 32/64/7
f 29/64/7 37/64/7 36/64/7 28/64/7
f 45/71/9 53/72/9 52/73/9 44/74/9
f 49/75/10 57/76/10 56/77/10 48/78/10
f 44/79/18 52/80/18 55/81/18 47/82/18
f 48/78/16 56/77/16 51/83/16 43/84/16
f 35/64/7 43/64/7 34/64/7 26/64/7
f 40/64/7 48/64/7 43/64/7 35/64/7
f 36/64/7 44/64/7 47/64/7 39/64/7
f 41/64/7 49/64/7 48/64/7 40/64/7
f 52/85/7 60/86/7 63/87/7 55/88/7
f 56/89/7 64/90/7 59/91/7 51/92/7
f 51/92/7 59/91/7 50/93/7 42/94/7
f 55/88/7 63/87/7 62/95/7 54/96/7
f 46/97/8 54/98/8 57/99/8 49/100/8
f 34/101/5 42/102/5 53/72/5 45/71/5
f 47/103/15 55/104/15 54/98/15 46/97/15
f 43/105/17 51/106/17 42/102/17 34/101/17
f 59/107/17 67/108/17 58/109/17 50/110/17
f 63/111/15 71/112/15 70/113/15 62/114/15
f 50/110/5 58/109/5 69/115/5 61/116/5
f 62/114/8 70/113/8 73/117/8 65/118/8
f 57/119/7 65/120/7 64/90/7 56/89/7
f 53/121/7 61/122/7 60/86/7 52/85/7
f 54/96/7 62/95/7 65/120/7 57/119/7
f 42/94/7 50/93/7 61/122/7 53/121/7
f 58/123/6 66/124/6 77/125/6 69/126/6
f 70/127/6 78/128/6 81/129/6 73/130/6
f 69/126/6 77/125/6 76/131/6 68/132/6
f 73/130/6 81/129/6 80/133/6 72/134/6
f 64/135/16 72/136/16 67/137/16 59/138/16
f 60/139/18 68/140/18 71/141/18 63/142/18
f 65/143/10 73/144/10 72/136/10 64/135/10
f 61/116/9 69/115/9 68/112/9 60/111/9
f 77/145/9 85/146/9 84/147/9 76/148/9
f 81/149/10 89/150/10 88/151/10 80/152/10
f 76/153/18 84/154/18 87/155/18 79/156/18
f 80/152/16 88/151/16 83/157/16 75/158/16
f 71/159/6 79/160/6 78/128/6 70/127/6
f 67/161/6 75/162/6 66/124/6 58/123/6
f 72/134/6 80/133/6 75/162/6 67/161/6
f 68/132/6 76/131/6 79/160/6 71/159/6
f 88/151/23 96/163/23 91/164/23 83/157/23
f 83/165/24 91/166/24 82/167/24 74/168/24
f 87/169/25 95/170/25 94/171/25 86/172/25
f 74/168/26 82/167/26 93/173/26 85/146/26
f 78/174/8 86/172/8 89/175/8 81/176/8
f 66/177/5 74/168/5 85/146/5 77/145/5
f 79/178/15 87/169/15 86/172/15 78/174/15
f 75/179/17 83/165/17 74/168/17 66/177/17
f 91/166/17 99/180/17 90/181/17 82/167/17
f 95/170/15 103/182/15 102/183/15 94/171/15
f 82/167/5 90/181/5 101/184/5 93/173/5
f 94/171/8 102/183/8 105/185/8 97/186/8
f 84/154/27 92/187/27 95/188/27 87/155/27
f 89/150/28 97/189/28 96/163/28 88/151/28
f 85/146/29 93/173/29 92/190/29 84/147/29
f 86/172/30 94/171/30 97/186/30 89/175/30
f 102/191/6 110/192/6 113/193/6 105/194/6
f 101/195/6 109/196/6 108/197/6 100/198/6
f 105/194/6 113/193/6 112/199/6 104/200/6
f 100/198/6 108/197/6 111/201/6 103/202/6
f 96/163/16 104/203/16 99/204/16 91/164/16
f 92/187/18 100/205/18 103/206/18 95/188/18
f 97/189/10 105/207/10 104/203/10 96/163/10
f 93/173/9 101/184/9 100/208/9 92/190/9
f 113/209/10 121/210/10 120/211/10 112/212/10
f 108/213/18 116/214/18 119/215/18 111/216/18
f 112/212/16 120/211/16 115/217/16 107/218/16
f 107/219/17 115/220/17 106/221/17 98/222/17
f 90/223/6 98/224/6 109/196/6 101/195/6
f 103/202/6 111/201/6 110/192/6 102/191/6
f 99/225/6 107/226/6 98/224/6 90/223/6
f 104/200/6 112/199/6 107/226/6 99/225/6
f 115/227/31 123/228/31 114/229/31 106/230/31
f 119/231/32 127/232/32 126/233/32 118/234/32
f 106/221/33 114/235/33 125/236/33 117/237/33
f 118/238/34 126/239/34 129/240/34 121/241/34
f 109/242/9 117/237/9 116/243/9 108/244/9
f 110/245/8 118/238/8 121/241/8 113/246/8
f 98/222/5 106/221/5 117/237/5 109/242/5
f 111/247/15 119/248/15 118/238/15 110/245/15
f 127/249/35 135/250/35 134/251/35 126/239/35
f 114/235/36 122/252/36 133/253/36 125/236/36
f 126/239/37 134/251/37 137/254/37 129/240/37
f 125/255/38 133/256/38 132/257/38 124/258/38
f 120/211/39 128/259/39 123/260/39 115/217/39
f 116/214/40 124/261/40 127/262/40 119/215/40
f 121/263/41 129/264/41 128/265/41 120/266/41
f 117/267/42 125/255/42 124/258/42 116/268/42
f 133/269/43 141/270/43 140/271/43 132/272/43
f 137/273/44 145/274/44 144/275/44 136/276/44
f 132/272/45 140/271/45 143/277/45 135/278/45
f 136/276/46 144/275/46 139/279/46 131/280/46
f 123/281/47 131/282/47 122/252/47 114/235/47
f 128/259/48 136/276/48 131/280/48 123/260/48
f 124/261/49 132/272/49 135/278/49 127/262/49
f 129/283/50 137/273/50 136/276/50 128/259/50
f 146/284/7 144/285/7 145/286/7 142/287/7
f 130/288/7 139/289/7 144/285/7 146/284/7
f 141/290/7 130/288/7 146/284/7 140/291/7
f 140/291/7 146/284/7 142/287/7 143/292/7
f 134/251/51 142/293/51 145/294/51 137/254/51
f 122/252/52 130/295/52 141/296/52 133/253/52
f 135/250/53 143/297/53 142/293/53 134/251/53
f 131/282/54 139/298/54 130/295/54 122/252/54
f 149/64/7 181/64/7 173/64/7 153/64/7
f 150/64/7 152/64/7 172/64/7 177/64/7
f 148/64/7 138/64/7 179/64/7 178/64/7
f 151/64/7 176/64/7 180/64/7 147/64/7
f 151/64/1 157/64/1 156/64/1 153/64/1
f 149/64/3 155/64/3 154/64/3 147/64/3
f 160/64/7 159/64/7 190/64/7 191/64/7
f 164/64/7 184/64/7 183/64/7 162/64/7
f 158/64/7 187/64/7 186/64/7 161/64/7
f 162/64/7 183/64/7 182/64/7 163/64/7
f 138/64/7 150/64/7 177/64/7 179/64/7
f 153/64/7 173/64/7 176/64/7 151/64/7
f 152/64/7 148/64/7 178/64/7 172/64/7
f 147/64/7 180/64/7 181/64/7 149/64/7
f 168/299/55 159/300/55 179/301/55 177/302/55
f 167/64/7 188/64/7 187/64/7 158/64/7
f 171/64/7 194/64/7 195/64/7 174/64/7
f 163/64/7 182/64/7 185/64/7 165/64/7
f 168/64/7 169/64/7 192/64/7 193/64/7
f 161/64/7 186/64/7 189/64/7 166/64/7
f 174/64/7 195/64/7 196/64/7 175/64/7
f 165/64/7 185/64/7 184/64/7 164/64/7
f 159/64/7 168/64/7 193/64/7 190/64/7
f 166/64/7 189/64/7 188/64/7 167/64/7
f 175/64/7 196/64/7 197/64/7 170/64/7
f 169/64/7 160/64/7 191/64/7 192/64/7
f 170/64/7 197/64/7 194/64/7 171/64/7
o Cube.001
v 0.154657 5.072265 2.470105
v 0.026893 5.924735 2.591420
v 0.154657 5.072265 1.903291
v 0.026893 5.924735 1.781975
v 0.751598 5.072265 2.470105
v 0.879362 5.924735 2.591420
v 0.751598 5.072265 1.903291
v 0.879362 5.924735 1.781975
v 0.026893 5.924735 2.612932
v 0.026893 5.924735 1.760463
v 0.879362 5.924735 1.760463
v 0.879362 5.924735 2.612932
v 0.026893 5.981627 2.612932
v 0.026893 5.981627 1.760463
v 0.879362 5.981627 1.760463
v 0.879362 5.981627 2.612932
v 0.089272 5.981627 2.550554
v 0.089272 5.981627 1.822842
v 0.816984 5.981627 1.822842
v 0.816984 5.981627 2.550554
v 0.114256 6.027452 2.525569
v 0.114256 6.027452 1.847826
v 0.791999 6.027452 1.847826
v 0.791999 6.027452 2.525569
v 0.287397 6.027451 2.352429
v 0.287397 6.027451 2.020967
v 0.618859 6.027451 2.020967
v 0.618859 6.027451 2.352429
v 0.353697 6.093935 2.286129
v 0.353697 6.093935 2.087267
v 0.552559 6.093935 2.087267
v 0.552559 6.093935 2.286129
v 0.154657 5.024779 1.888227
v 0.154657 5.024779 2.485169
v 0.751598 5.024779 1.888227
v 0.751598 5.024779 2.485169
v 0.299029 5.024779 2.032600
v 0.299029 5.024779 2.340797
v 0.607226 5.024779 2.032600
v 0.607226 5.024779 2.340797
v 0.299029 4.954036 2.032600
v 0.299029 4.954036 2.340797
v 0.607226 4.954036 2.032600
v 0.607226 4.954036 2.340797
v 0.388276 4.954035 2.121847
v 0.388276 4.954035 2.251550
v 0.517979 4.954035 2.121847
v 0.517979 4.954035 2.251550
v 0.388276 4.881910 2.121847
v 0.388276 4.881910 2.251550
v 0.517979 4.881910 2.121847
v 0.517979 4.881910 2.251550
v 0.405065 6.093935 2.234761
v 0.405065 6.093935 2.138635
v 0.501191 6.093935 2.138635
v 0.501191 6.093935 2.234761
v 0.428425 6.134335 2.211402
v 0.428425 6.134335 2.161995
v 0.477831 6.134335 2.161995
v 0.477831 6.134335 2.211402
v 0.187749 5.077627 1.902528
v 0.189467 5.077906 2.470908
v 0.063394 5.919094 2.590617
v 0.061592 5.919373 1.782738
v 0.752544 5.078572 1.946681
v 0.878417 5.918429 1.827160
v 0.752544 5.078572 2.426715
v 0.878417 5.918429 2.546235
v 0.844663 5.919373 1.782738
v 0.718507 5.077627 1.902528
v 0.716789 5.077906 2.470908
v 0.842862 5.919094 2.590617
v 0.027614 5.919927 1.816419
v 0.153937 5.077073 1.936367
v 0.751598 5.072265 1.903291
v 0.879362 5.924735 1.781975
v 0.153937 5.077073 2.437029
v 0.027614 5.919927 2.556976
v 0.879362 5.924735 2.591420
v 0.751598 5.072265 2.470105
v 0.154657 5.072265 1.903291
v 0.154657 5.072265 2.470105
v 0.026893 5.924735 2.591420
v 0.026893 5.924735 1.781975
v 0.878417 5.918429 1.827160
v 0.752544 5.078572 1.946681
v 0.752544 5.078572 2.426715
v 0.878417 5.918429 2.546235
v 0.061592 5.919373 1.782738
v 0.187749 5.077627 1.902528
v 0.718507 5.077627 1.902528
v 0.844663 5.919373 1.782738
v 0.189467 5.077906 2.470908
v 0.063394 5.919094 2.590617
v 0.842862 5.919094 2.590617
v 0.716789 5.077906 2.470908
v 0.153937 5.077073 1.936367
v 0.153937 5.077073 2.437029
v 0.027614 5.919927 2.556976
v 0.027614 5.919927 1.816419
v 0.840983 5.918569 1.827160
v 0.715110 5.078712 1.946681
v 0.715110 5.078712 2.426715
v 0.840983 5.918569 2.546235
v 0.061592 5.919493 1.824328
v 0.187749 5.077747 1.944118
v 0.718507 5.077747 1.944118
v 0.844663 5.919493 1.824328
v 0.189467 5.078026 2.429318
v 0.063394 5.919214 2.549028
v 0.842862 5.919214 2.549028
v 0.716789 5.078026 2.429318
v 0.191370 5.077213 1.936367
v 0.191370 5.077213 2.437029
v 0.065047 5.920068 2.556976
v 0.065047 5.920068 1.816419
vn 1.0000 -0.0000 -0.0000
vn -0.0000 -0.0000 1.0000
vn -0.0000 -1.0000 -0.0000
vn -0.0000 1.0000 -0.0000
vn -0.0000 -0.0000 -1.0000
vn -1.0000 -0.0000 -0.0000
vn 0.8780 0.4787 -0.0000
vn -0.8780 0.4787 -0.0000
vn -0.0000 0.4787 0.8780
vn -0.0000 0.4787 -0.8780
vn -0.0000 0.7061 0.7081
vn -0.0000 0.7061 -0.7081
vn 0.7081 0.7061 -0.0000
vn -0.7081 0.7061 -0.0000
vn -0.0000 0.3024 0.9532
vn -0.0000 0.3024 -0.9532
vn 0.8657 0.5006 -0.0000
vn -0.8657 0.5006 -0.0000
vn -0.0000 0.5006 0.8657
vn -0.0000 0.5006 -0.8657
vn 0.9890 -0.1482 -0.0000
vn 0.9889 -0.1482 -0.0000
vn -0.0000 -0.1409 -0.9900
vn -0.0000 -0.1409 0.9900
vn -0.9890 -0.1482 -0.0000
vn -0.0000 1.0000 -0.0029
vn 0.0005 -0.1408 0.9900
vn -0.0000 -1.0000 0.0029
vn 0.0037 -1.0000 -0.0000
vn -0.0038 1.0000 -0.0000
vn 0.9890 -0.1482 0.0004
vn -0.0005 -0.1408 -0.9900
vn 0.0005 -0.1408 -0.9900
vn -0.9890 -0.1482 -0.0004
vn -0.0037 -1.0000 -0.0000
vn 0.9890 -0.1482 -0.0004
vn 0.0037 1.0000 -0.0000
vn -0.0000 -1.0000 -0.0029
vn -0.0005 -0.1408 0.9900
vn -0.0000 1.0000 0.0029
vn -0.9890 -0.1482 0.0004
vt 0.960849 0.003505
vt 0.960849 0.135377
vt 0.971878 0.138881
vt 0.971878 -0.000000
vt 0.969359 0.849517
vt 0.969359 0.651186
vt 0.956198 0.651186
vt 0.956198 0.849517
vt 1.000000 0.447832
vt 1.000000 0.249501
vt 0.994995 0.249501
vt 0.994995 0.447832
vt 0.994830 0.045151
vt 0.994830 0.243482
vt 0.999835 0.243482
vt 0.999835 0.045151
vt 0.174697 0.409609
vt 0.373029 0.409609
vt 0.358516 0.395096
vt 0.189210 0.395096
vt 0.956198 0.849517
vt 0.956198 0.651186
vt 0.943010 0.651186
vt 0.943010 0.849517
vt 0.956224 0.651186
vt 0.956224 0.452855
vt 0.943010 0.452855
vt 0.943010 0.651186
vt 0.943010 0.452855
vt 0.929796 0.452855
vt 0.929796 0.651186
vt 0.986376 0.619991
vt 0.986376 0.450685
vt 0.975393 0.456497
vt 0.975393 0.614178
vt 0.373029 0.211277
vt 0.174697 0.211277
vt 0.189210 0.225790
vt 0.358516 0.225790
vt 0.769474 -0.000000
vt 0.769474 0.157680
vt 0.809756 0.117398
vt 0.809756 0.040282
vt 0.986376 0.450685
vt 0.986376 0.281379
vt 0.975393 0.287191
vt 0.975393 0.444872
vt 0.551340 0.975675
vt 0.551340 0.806369
vt 0.540120 0.812182
vt 0.540120 0.969862
vt 0.541755 0.775173
vt 0.541755 0.605867
vt 0.530636 0.611680
vt 0.530636 0.769360
vt 0.739938 0.856706
vt 0.739938 0.779590
vt 0.722915 0.795015
vt 0.722915 0.841281
vt 0.927154 0.157680
vt 0.927154 0.000000
vt 0.886872 0.040282
vt 0.886872 0.117398
vt 0.849635 0.604534
vt 0.849635 0.650800
vt 0.861586 0.638849
vt 0.861586 0.616485
vt 0.926889 0.304453
vt 0.926890 0.227336
vt 0.910158 0.242761
vt 0.910158 0.289028
vt 0.323957 0.959555
vt 0.323957 0.882439
vt 0.307615 0.897864
vt 0.307615 0.944130
vt 0.943231 0.304453
vt 0.943231 0.227336
vt 0.926889 0.242761
vt 0.926889 0.289028
vt 0.908356 0.313974
vt 0.769474 0.313974
vt 0.803063 0.347562
vt 0.874767 0.347562
vt 0.927154 0.000000
vt 0.927154 0.138882
vt 0.938513 0.138882
vt 0.938513 0.000000
vt 0.938513 -0.000000
vt 0.938513 0.138881
vt 0.949820 0.138881
vt 0.949820 -0.000000
vt 0.949820 0.003505
vt 0.949820 0.135377
vt 0.960850 0.138882
vt 0.960850 0.000000
vt 0.567739 0.909532
vt 0.567739 0.981235
vt 0.584104 0.981235
vt 0.584104 0.909532
vt 0.769474 0.452855
vt 0.908356 0.452855
vt 0.874767 0.419266
vt 0.803063 0.419266
vt 0.307615 0.803447
vt 0.235912 0.803447
vt 0.256676 0.824210
vt 0.286852 0.824210
vt 0.567739 0.981236
vt 0.567739 0.909532
vt 0.551340 0.909532
vt 0.551340 0.981236
vt 0.410579 0.887863
vt 0.410579 0.959567
vt 0.427009 0.959567
vt 0.427009 0.887863
vt 0.741409 0.908911
vt 0.741409 0.980615
vt 0.757840 0.980615
vt 0.757840 0.908911
vt 0.722915 0.856706
vt 0.722915 0.886882
vt 0.739667 0.886882
vt 0.739667 0.856706
vt 0.235912 0.875150
vt 0.307615 0.875150
vt 0.286852 0.854386
vt 0.256676 0.854386
vt 0.895901 0.634710
vt 0.926077 0.634710
vt 0.926077 0.604534
vt 0.895901 0.604534
vt 0.584104 0.909532
vt 0.584104 0.939708
vt 0.600789 0.939708
vt 0.600789 0.909532
vt 0.917155 0.414901
vt 0.917155 0.445077
vt 0.933874 0.445077
vt 0.933874 0.414901
vt 0.917155 0.384725
vt 0.917155 0.414901
vt 0.933907 0.414901
vt 0.933907 0.384725
vt 0.925357 0.657074
vt 0.925357 0.634710
vt 0.915656 0.640145
vt 0.915656 0.651639
vt 0.895901 0.650800
vt 0.883950 0.616485
vt 0.883950 0.638849
vt 0.376369 0.209826
vt 0.376369 0.198331
vt 0.364874 0.198331
vt 0.364874 0.209826
vt 0.769474 0.931275
vt 0.769474 0.908911
vt 0.759774 0.914346
vt 0.759774 0.925840
vt 0.905826 0.657074
vt 0.905826 0.634710
vt 0.895901 0.640145
vt 0.895901 0.651639
vt 0.915656 0.657074
vt 0.915656 0.634710
vt 0.905826 0.640145
vt 0.905826 0.651639
vt 0.352506 0.411060
vt 0.324699 0.604415
vt 0.334794 0.605867
vt 0.363019 0.409609
vt 0.213017 0.604415
vt 0.202922 0.605867
vt 0.185210 0.411060
vt 0.174697 0.409609
vt 0.366102 0.008073
vt 0.558834 0.037424
vt 0.560062 0.029725
vt 0.364874 -0.000000
vt 0.558834 0.160907
vt 0.560062 0.168606
vt 0.366102 0.190258
vt 0.364874 0.198331
vt 0.565940 0.371785
vt 0.374314 0.401117
vt 0.373029 0.409609
vt 0.567225 0.379884
vt 0.374314 0.219769
vt 0.565940 0.249101
vt 0.567225 0.241002
vt 0.373029 0.211277
vt 0.515420 0.604760
vt 0.398939 0.604760
vt 0.391244 0.605867
vt 0.523116 0.605867
vt 0.543327 0.410715
vt 0.551340 0.409609
vt 0.371033 0.410715
vt 0.363019 0.409609
vt 0.986210 0.227336
vt 0.976534 0.227336
vt 0.976534 0.045151
vt 0.986210 0.045151
vt 0.994995 0.449437
vt 0.986376 0.450685
vt 0.986376 0.250749
vt 0.994995 0.249501
vt 0.956198 0.973001
vt 0.946522 0.973001
vt 0.946522 0.849517
vt 0.956198 0.849517
vt 0.969359 0.968037
vt 0.960650 0.968037
vt 0.960650 0.851556
vt 0.969359 0.851556
vt 0.934301 0.651186
vt 0.943010 0.651186
vt 0.943010 0.823481
vt 0.934301 0.823481
vt 0.541756 0.605867
vt 0.551340 0.607193
vt 0.551340 0.806369
vt 0.541756 0.805043
vt 0.997239 0.850596
vt 0.988620 0.851843
vt 0.988620 0.652433
vt 0.997239 0.651186
vt 0.986210 0.045151
vt 0.994830 0.046398
vt 0.994830 0.246519
vt 0.986210 0.245272
vt 0.965808 0.450685
vt 0.975393 0.452011
vt 0.975393 0.651054
vt 0.965808 0.649728
vt 0.298906 0.875150
vt 0.307615 0.875150
vt 0.307615 0.986833
vt 0.298906 0.986833
vt 0.978944 0.850229
vt 0.969359 0.851556
vt 0.969359 0.652512
vt 0.978944 0.651186
vt 0.988620 0.999830
vt 0.979911 0.999830
vt 0.979911 0.832533
vt 0.988620 0.832533
vt 0.979035 0.851556
vt 0.979035 0.974240
vt 0.969359 0.974240
vt 0.986376 0.450685
vt 0.994995 0.451933
vt 0.994995 0.651157
vt 0.986376 0.649909
vt 0.978944 0.651186
vt 0.988620 0.651186
vt 0.988620 0.832533
vt 0.978944 0.832533
vt 0.965808 0.649860
vt 0.956223 0.651186
vt 0.956223 0.452011
vt 0.965808 0.450685
s 0
usemtl head
f 204/303/56 202/304/56 233/305/56 232/306/56
f 206/307/57 209/308/57 213/309/57 210/310/57
f 199/311/58 203/312/58 209/313/58 206/314/58
f 205/315/58 201/316/58 207/317/58 208/318/58
f 213/319/59 212/320/59 216/321/59 217/322/59
f 208/323/60 207/324/60 211/325/60 212/326/60
f 209/327/56 208/328/56 212/329/56 213/325/56
f 207/330/61 206/331/61 210/332/61 211/333/61
f 217/334/62 216/335/62 220/336/62 221/337/62
f 211/338/59 210/339/59 214/340/59 215/341/59
f 210/339/59 213/319/59 217/322/59 214/340/59
f 212/320/59 211/338/59 215/341/59 216/321/59
f 218/342/59 221/343/59 225/344/59 222/345/59
f 215/346/63 214/347/63 218/348/63 219/349/63
f 214/350/64 217/351/64 221/352/64 218/353/64
f 216/354/65 215/355/65 219/356/65 220/357/65
f 222/358/66 225/359/66 229/360/66 226/361/66
f 220/362/59 219/363/59 223/364/59 224/365/59
f 221/343/59 220/362/59 224/365/59 225/344/59
f 219/363/59 218/342/59 222/345/59 223/364/59
f 229/366/59 228/367/59 252/368/59 253/369/59
f 224/370/67 223/371/67 227/372/67 228/373/67
f 225/374/68 224/375/68 228/376/68 229/377/68
f 223/378/69 222/379/69 226/380/69 227/381/69
f 232/382/58 233/383/58 237/384/58 236/385/58
f 202/386/70 198/387/70 231/388/70 233/389/70
f 200/390/71 204/391/71 232/392/71 230/393/71
f 198/394/61 200/395/61 230/396/61 231/397/61
f 237/398/57 235/399/57 239/400/57 241/401/57
f 231/402/58 230/403/58 234/404/58 235/405/58
f 233/383/58 231/402/58 235/405/58 237/384/58
f 230/403/58 232/382/58 236/385/58 234/404/58
f 240/406/58 241/407/58 245/408/58 244/409/58
f 234/410/60 236/411/60 240/412/60 238/413/60
f 236/414/56 237/415/56 241/416/56 240/417/56
f 235/418/61 234/419/61 238/420/61 239/421/61
f 243/422/61 242/423/61 246/424/61 247/425/61
f 239/426/58 238/427/58 242/428/58 243/429/58
f 241/407/58 239/426/58 243/429/58 245/408/58
f 238/427/58 240/406/58 244/409/58 242/428/58
f 246/430/58 248/431/58 249/432/58 247/433/58
f 245/434/57 243/435/57 247/436/57 249/437/57
f 242/438/60 244/439/60 248/440/60 246/441/60
f 244/442/56 245/443/56 249/444/56 248/445/56
f 253/446/72 252/447/72 256/448/72 257/449/72
f 227/450/59 226/433/59 250/451/59 251/452/59
f 226/433/59 229/366/59 253/369/59 250/451/59
f 228/367/59 227/450/59 251/452/59 252/368/59
f 256/453/59 255/454/59 254/455/59 257/456/59
f 251/457/73 250/458/73 254/459/73 255/460/73
f 250/461/74 253/462/74 257/463/74 254/464/74
f 252/465/75 251/466/75 255/467/75 256/468/75
f 263/469/76 262/470/76 272/471/76 273/472/76
f 262/470/76 264/473/76 277/474/76 272/471/76
f 265/475/77 263/469/77 273/472/77 276/476/77
f 264/473/76 265/475/76 276/476/76 277/474/76
f 261/477/78 258/478/78 278/479/78 281/480/78
f 258/478/78 267/481/78 272/482/78 278/479/78
f 266/483/78 261/477/78 281/480/78 273/484/78
f 267/481/78 266/483/78 273/484/78 272/482/78
f 259/485/79 260/486/79 280/487/79 279/488/79
f 269/489/79 268/490/79 277/491/79 276/492/79
f 260/486/79 269/489/79 276/492/79 280/487/79
f 274/493/80 271/494/80 278/495/80 279/496/80
f 275/497/80 274/493/80 279/496/80 280/498/80
f 270/499/80 275/497/80 280/498/80 281/500/80
f 271/494/80 270/499/80 281/500/80 278/495/80
f 286/501/81 302/502/81 305/503/81 289/504/81
f 295/505/82 311/506/82 312/507/82 296/508/82
f 288/509/83 304/510/83 303/511/83 287/512/83
f 294/513/84 310/514/84 311/515/84 295/516/84
f 296/517/85 312/518/85 313/519/85 297/520/85
f 289/521/86 305/522/86 304/523/86 288/524/86
f 283/525/87 299/526/87 298/527/87 282/528/87
f 297/529/88 313/530/88 310/531/88 294/532/88
f 291/533/89 307/534/89 306/535/89 290/536/89
f 284/537/90 300/538/90 299/539/90 283/540/90
f 293/541/91 309/542/91 308/543/91 292/544/91
f 282/545/92 298/546/92 301/547/92 285/548/92
f 290/542/93 306/549/93 309/550/93 293/551/93
f 285/552/94 301/553/94 300/554/94 284/555/94
f 292/556/95 308/557/95 307/558/95 291/559/95
f 287/560/96 303/561/96 302/562/96 286/563/96
o Cube.002
o Sphere
v 0.453128 5.159459 2.191189
v 0.453128 5.192244 2.299266
v 0.453128 5.245915 2.352937
v 0.453128 5.316041 2.381984
v 0.453128 5.353992 2.385722
v 0.453128 5.391943 2.381984
v 0.453128 5.462069 2.352937
v 0.453128 5.548525 2.191189
v 0.445724 5.163197 2.228411
v 0.438604 5.174267 2.264203
v 0.432043 5.192244 2.297189
v 0.426292 5.216436 2.326102
v 0.421572 5.245915 2.349829
v 0.418065 5.279548 2.367461
v 0.415905 5.316041 2.378318
v 0.415176 5.353992 2.381984
v 0.415905 5.391943 2.378318
v 0.418065 5.428436 2.367461
v 0.421572 5.462069 2.349829
v 0.426292 5.491548 2.326102
v 0.432043 5.515740 2.297189
v 0.438604 5.533717 2.264203
v 0.445724 5.544787 2.228411
v 0.438604 5.163197 2.226252
v 0.424639 5.174267 2.259967
v 0.411768 5.192244 2.291039
v 0.400487 5.216436 2.318274
v 0.391229 5.245915 2.340625
v 0.384350 5.279548 2.357234
v 0.380113 5.316041 2.367461
v 0.378683 5.353992 2.370914
v 0.380113 5.391943 2.367461
v 0.384350 5.428436 2.357234
v 0.391229 5.462069 2.340625
v 0.400487 5.491548 2.318274
v 0.411768 5.515740 2.291039
v 0.424639 5.533717 2.259967
v 0.438604 5.544787 2.226252
v 0.432043 5.163197 2.222745
v 0.411768 5.174267 2.253088
v 0.393083 5.192244 2.281052
v 0.376706 5.216436 2.305562
v 0.363265 5.245915 2.325678
v 0.353278 5.279548 2.340625
v 0.347128 5.316041 2.349829
v 0.345051 5.353992 2.352937
v 0.347128 5.391943 2.349829
v 0.353278 5.428436 2.340625
v 0.363265 5.462069 2.325678
v 0.376706 5.491548 2.305562
v 0.393083 5.515740 2.281052
v 0.411768 5.533717 2.253088
v 0.432043 5.544787 2.222745
v 0.426292 5.163197 2.218025
v 0.400487 5.174267 2.243829
v 0.376706 5.192244 2.267611
v 0.355861 5.216436 2.288456
v 0.338754 5.245915 2.305562
v 0.326043 5.279548 2.318274
v 0.318215 5.316041 2.326102
v 0.315572 5.353992 2.328745
v 0.318215 5.391943 2.326102
v 0.326043 5.428436 2.318274
v 0.338754 5.462069 2.305562
v 0.355861 5.491548 2.288456
v 0.376706 5.515740 2.267611
v 0.400487 5.533717 2.243829
v 0.426292 5.544787 2.218025
v 0.421572 5.163197 2.212274
v 0.391229 5.174267 2.232548
v 0.363265 5.192244 2.251234
v 0.338754 5.216436 2.267611
v 0.318639 5.245915 2.281052
v 0.303692 5.279548 2.291039
v 0.294487 5.316041 2.297189
v 0.291379 5.353992 2.299266
v 0.294487 5.391943 2.297189
v 0.303692 5.428436 2.291039
v 0.318639 5.462069 2.281052
v 0.338754 5.491548 2.267611
v 0.363265 5.515740 2.251234
v 0.391229 5.533717 2.232548
v 0.421572 5.544787 2.212274
v 0.418065 5.163197 2.205713
v 0.384350 5.174267 2.219678
v 0.353278 5.192244 2.232548
v 0.326043 5.216436 2.243829
v 0.303692 5.245915 2.253088
v 0.287083 5.279548 2.259967
v 0.276856 5.316041 2.264203
v 0.273403 5.353992 2.265634
v 0.276856 5.391943 2.264203
v 0.287083 5.428436 2.259967
v 0.303692 5.462069 2.253088
v 0.326043 5.491548 2.243829
v 0.353278 5.515740 2.232548
v 0.384350 5.533717 2.219678
v 0.418065 5.544787 2.205713
v 0.415905 5.163197 2.198593
v 0.380113 5.174267 2.205713
v 0.347128 5.192244 2.212274
v 0.318215 5.216436 2.218025
v 0.294487 5.245915 2.222745
v 0.276856 5.279548 2.226252
v 0.265999 5.316041 2.228411
v 0.262333 5.353992 2.229141
v 0.265999 5.391943 2.228411
v 0.276856 5.428436 2.226252
v 0.294487 5.462069 2.222745
v 0.318215 5.491548 2.218025
v 0.347128 5.515740 2.212274
v 0.380113 5.533717 2.205713
v 0.415905 5.544787 2.198593
v 0.415176 5.163197 2.191189
v 0.378683 5.174267 2.191189
v 0.345051 5.192244 2.191189
v 0.315572 5.216436 2.191189
v 0.291379 5.245915 2.191189
v 0.273403 5.279548 2.191189
v 0.262333 5.316041 2.191189
v 0.258595 5.353992 2.191189
v 0.262333 5.391943 2.191189
v 0.273403 5.428436 2.191189
v 0.291379 5.462069 2.191189
v 0.315572 5.491548 2.191189
v 0.345051 5.515740 2.191189
v 0.378683 5.533717 2.191189
v 0.415176 5.544787 2.191189
v 0.415905 5.163197 2.183785
v 0.380113 5.174267 2.176666
v 0.347128 5.192244 2.170105
v 0.318215 5.216436 2.164354
v 0.294487 5.245915 2.159634
v 0.276856 5.279548 2.156127
v 0.265999 5.316041 2.153967
v 0.262333 5.353992 2.153238
v 0.265999 5.391943 2.153967
v 0.276856 5.428436 2.156127
v 0.294487 5.462069 2.159634
v 0.318215 5.491548 2.164354
v 0.347128 5.515740 2.170105
v 0.380113 5.533717 2.176666
v 0.415905 5.544787 2.183785
v 0.418065 5.163197 2.176666
v 0.384350 5.174267 2.162701
v 0.353278 5.192244 2.149830
v 0.326043 5.216436 2.138549
v 0.303692 5.245915 2.129291
v 0.287083 5.279548 2.122411
v 0.276856 5.316041 2.118175
v 0.273403 5.353992 2.116745
v 0.276856 5.391943 2.118175
v 0.287083 5.428436 2.122411
v 0.303692 5.462069 2.129291
v 0.326043 5.491548 2.138549
v 0.353278 5.515740 2.149830
v 0.384350 5.533717 2.162701
v 0.418065 5.544787 2.176666
v 0.421572 5.163197 2.170105
v 0.391229 5.174267 2.149830
v 0.363265 5.192244 2.131145
v 0.338754 5.216436 2.114768
v 0.318639 5.245915 2.101327
v 0.303692 5.279548 2.091340
v 0.294487 5.316041 2.085189
v 0.291379 5.353992 2.083113
v 0.294487 5.391943 2.085189
v 0.303692 5.428436 2.091340
v 0.318639 5.462069 2.101327
v 0.338754 5.491548 2.114768
v 0.363265 5.515740 2.131145
v 0.391229 5.533717 2.149830
v 0.421572 5.544787 2.170105
v 0.426292 5.163197 2.164354
v 0.400487 5.174267 2.138549
v 0.376706 5.192244 2.114768
v 0.355861 5.216436 2.093923
v 0.338754 5.245915 2.076816
v 0.326043 5.279548 2.064105
v 0.318215 5.316041 2.056277
v 0.315572 5.353992 2.053634
v 0.318215 5.391943 2.056277
v 0.326043 5.428436 2.064105
v 0.338754 5.462069 2.076816
v 0.355861 5.491548 2.093923
v 0.376706 5.515740 2.114768
v 0.400487 5.533717 2.138549
v 0.426292 5.544787 2.164354
v 0.432043 5.163197 2.159634
v 0.411768 5.174267 2.129291
v 0.393083 5.192244 2.101327
v 0.376706 5.216436 2.076816
v 0.363265 5.245915 2.056701
v 0.353278 5.279548 2.041754
v 0.347128 5.316041 2.032549
v 0.345051 5.353992 2.029441
v 0.347128 5.391943 2.032549
v 0.353278 5.428436 2.041754
v 0.363265 5.462069 2.056701
v 0.376706 5.491548 2.076816
v 0.393083 5.515740 2.101327
v 0.411768 5.533717 2.129291
v 0.432043 5.544787 2.159634
v 0.438604 5.163197 2.156127
v 0.424639 5.174267 2.122411
v 0.411768 5.192244 2.091340
v 0.400487 5.216436 2.064105
v 0.391229 5.245915 2.041754
v 0.384350 5.279548 2.025145
v 0.380114 5.316041 2.014918
v 0.378683 5.353992 2.011464
v 0.380114 5.391943 2.014918
v 0.384350 5.428436 2.025145
v 0.391229 5.462069 2.041754
v 0.400487 5.491548 2.064105
v 0.411768 5.515740 2.091340
v 0.424639 5.533717 2.122411
v 0.438604 5.544787 2.156127
v 0.445724 5.163197 2.153967
v 0.438604 5.174267 2.118175
v 0.432043 5.192244 2.085189
v 0.426292 5.216436 2.056277
v 0.421572 5.245915 2.032549
v 0.418065 5.279548 2.014918
v 0.415905 5.316041 2.004061
v 0.415176 5.353992 2.000394
v 0.415905 5.391943 2.004061
v 0.418065 5.428436 2.014918
v 0.421572 5.462069 2.032549
v 0.426292 5.491548 2.056277
v 0.432043 5.515740 2.085189
v 0.438604 5.533717 2.118175
v 0.445724 5.544787 2.153967
v 0.453128 5.163197 2.153238
v 0.453128 5.174267 2.116745
v 0.453128 5.192244 2.083113
v 0.453128 5.216436 2.053634
v 0.453128 5.245915 2.029441
v 0.453128 5.279548 2.011464
v 0.453128 5.316041 2.000394
v 0.453128 5.353992 1.996657
v 0.453128 5.391943 2.000394
v 0.453128 5.428436 2.011464
v 0.453128 5.462069 2.029441
v 0.453128 5.491548 2.053634
v 0.453128 5.515740 2.083113
v 0.453128 5.533717 2.116745
v 0.453128 5.544787 2.153238
v 0.460532 5.163197 2.153967
v 0.467651 5.174267 2.118175
v 0.474212 5.192244 2.085189
v 0.479963 5.216436 2.056277
v 0.484683 5.245915 2.032549
v 0.488190 5.279548 2.014918
v 0.490350 5.316041 2.004061
v 0.491079 5.353992 2.000394
v 0.490350 5.391943 2.004061
v 0.488190 5.428436 2.014918
v 0.484683 5.462069 2.032549
v 0.479963 5.491548 2.056277
v 0.474212 5.515740 2.085189
v 0.467651 5.533717 2.118175
v 0.460532 5.544787 2.153967
v 0.467651 5.163197 2.156127
v 0.481616 5.174267 2.122411
v 0.494487 5.192244 2.091340
v 0.505768 5.216436 2.064105
v 0.515026 5.245915 2.041754
v 0.521905 5.279548 2.025145
v 0.526142 5.316041 2.014918
v 0.527572 5.353992 2.011465
v 0.526142 5.391943 2.014918
v 0.521905 5.428436 2.025145
v 0.515026 5.462069 2.041754
v 0.505768 5.491548 2.064105
v 0.494487 5.515740 2.091340
v 0.481616 5.533717 2.122411
v 0.467651 5.544787 2.156127
v 0.474212 5.163197 2.159634
v 0.494487 5.174267 2.129291
v 0.513172 5.192244 2.101327
v 0.529549 5.216436 2.076816
v 0.542990 5.245915 2.056701
v 0.552977 5.279548 2.041754
v 0.559128 5.316041 2.032549
v 0.561204 5.353992 2.029441
v 0.559128 5.391943 2.032549
v 0.552977 5.428436 2.041754
v 0.542990 5.462069 2.056701
v 0.529549 5.491548 2.076816
v 0.513172 5.515740 2.101327
v 0.494487 5.533717 2.129291
v 0.474212 5.544787 2.159634
v 0.479963 5.163197 2.164354
v 0.505768 5.174267 2.138549
v 0.529549 5.192244 2.114768
v 0.550394 5.216436 2.093923
v 0.567501 5.245915 2.076816
v 0.580212 5.279548 2.064105
v 0.588040 5.316041 2.056277
v 0.590683 5.353992 2.053634
v 0.588040 5.391943 2.056277
v 0.580212 5.428436 2.064105
v 0.567501 5.462069 2.076816
v 0.550394 5.491548 2.093923
v 0.529549 5.515740 2.114768
v 0.505768 5.533717 2.138549
v 0.479963 5.544787 2.164354
v 0.484683 5.163197 2.170105
v 0.515026 5.174267 2.149830
v 0.542990 5.192244 2.131145
v 0.567501 5.216436 2.114768
v 0.587616 5.245915 2.101327
v 0.602563 5.279548 2.091340
v 0.611768 5.316041 2.085189
v 0.614876 5.353992 2.083113
v 0.611768 5.391943 2.085189
v 0.602563 5.428436 2.091340
v 0.587616 5.462069 2.101327
v 0.567501 5.491548 2.114768
v 0.542990 5.515740 2.131145
v 0.515026 5.533717 2.149830
v 0.484683 5.544787 2.170105
v 0.488190 5.163197 2.176666
v 0.521905 5.174267 2.162701
v 0.552977 5.192244 2.149830
v 0.580212 5.216436 2.138549
v 0.602563 5.245915 2.129291
v 0.619172 5.279548 2.122411
v 0.629399 5.316041 2.118175
v 0.632852 5.353992 2.116745
v 0.629399 5.391943 2.118175
v 0.619172 5.428436 2.122411
v 0.602563 5.462069 2.129291
v 0.580212 5.491548 2.138549
v 0.552977 5.515740 2.149830
v 0.521905 5.533717 2.162701
v 0.488190 5.544787 2.176666
v 0.490350 5.163197 2.183785
v 0.526142 5.174267 2.176666
v 0.559128 5.192244 2.170105
v 0.588040 5.216436 2.164354
v 0.611768 5.245915 2.159634
v 0.629399 5.279548 2.156127
v 0.640256 5.316041 2.153967
v 0.643922 5.353992 2.153238
v 0.640256 5.391943 2.153967
v 0.629399 5.428436 2.156127
v 0.611768 5.462069 2.159634
v 0.588040 5.491548 2.164354
v 0.559128 5.515740 2.170105
v 0.526142 5.533717 2.176666
v 0.490350 5.544787 2.183785
v 0.491079 5.163197 2.191189
v 0.527572 5.174267 2.191189
v 0.561204 5.192244 2.191189
v 0.590683 5.216436 2.191189
v 0.614876 5.245915 2.191189
v 0.632852 5.279548 2.191189
v 0.643922 5.316041 2.191189
v 0.647660 5.353992 2.191189
v 0.643922 5.391943 2.191189
v 0.632852 5.428436 2.191189
v 0.614876 5.462069 2.191189
v 0.590683 5.491548 2.191189
v 0.561204 5.515740 2.191189
v 0.527572 5.533717 2.191189
v 0.491079 5.544787 2.191189
v 0.490350 5.163197 2.198593
v 0.526142 5.174267 2.205713
v 0.559127 5.192244 2.212274
v 0.588040 5.216436 2.218025
v 0.611768 5.245915 2.222745
v 0.629399 5.279548 2.226252
v 0.640256 5.316041 2.228412
v 0.643922 5.353992 2.229141
v 0.640256 5.391943 2.228412
v 0.629399 5.428436 2.226252
v 0.611768 5.462069 2.222745
v 0.588040 5.491548 2.218025
v 0.559127 5.515740 2.212274
v 0.526142 5.533717 2.205713
v 0.490350 5.544787 2.198593
v 0.488190 5.163197 2.205713
v 0.521905 5.174267 2.219678
v 0.552977 5.192244 2.232548
v 0.580212 5.216436 2.243829
v 0.602563 5.245915 2.253088
v 0.619172 5.279548 2.259967
v 0.629399 5.316041 2.264203
v 0.632852 5.353992 2.265634
v 0.629399 5.391943 2.264203
v 0.619172 5.428436 2.259967
v 0.602563 5.462069 2.253088
v 0.580212 5.491548 2.243829
v 0.552977 5.515740 2.232548
v 0.521905 5.533717 2.219678
v 0.488190 5.544787 2.205713
v 0.484683 5.163197 2.212274
v 0.515026 5.174267 2.232548
v 0.542990 5.192244 2.251233
v 0.567501 5.216436 2.267611
v 0.587616 5.245915 2.281052
v 0.602563 5.279548 2.291039
v 0.611768 5.316041 2.297189
v 0.614875 5.353992 2.299266
v 0.611768 5.391943 2.297189
v 0.602563 5.428436 2.291039
v 0.587616 5.462069 2.281052
v 0.567501 5.491548 2.267611
v 0.542990 5.515740 2.251233
v 0.515026 5.533717 2.232548
v 0.484683 5.544787 2.212274
v 0.479963 5.163197 2.218025
v 0.505768 5.174267 2.243829
v 0.529549 5.192244 2.267611
v 0.550394 5.216436 2.288456
v 0.567501 5.245915 2.305562
v 0.580212 5.279548 2.318274
v 0.588040 5.316041 2.326102
v 0.590683 5.353992 2.328745
v 0.588040 5.391943 2.326102
v 0.580212 5.428436 2.318274
v 0.567501 5.462069 2.305562
v 0.550394 5.491548 2.288456
v 0.529549 5.515740 2.267611
v 0.505768 5.533717 2.243829
v 0.479963 5.544787 2.218025
v 0.474212 5.163197 2.222745
v 0.494487 5.174267 2.253088
v 0.513172 5.192244 2.281052
v 0.529549 5.216436 2.305562
v 0.542990 5.245915 2.325678
v 0.552977 5.279548 2.340625
v 0.559127 5.316041 2.349829
v 0.561204 5.353992 2.352937
v 0.559127 5.391943 2.349829
v 0.552977 5.428436 2.340625
v 0.542990 5.462069 2.325678
v 0.529549 5.491548 2.305562
v 0.513172 5.515740 2.281052
v 0.494487 5.533717 2.253088
v 0.474212 5.544787 2.222745
v 0.467651 5.163197 2.226252
v 0.481616 5.174267 2.259967
v 0.494487 5.192244 2.291039
v 0.505768 5.216436 2.318274
v 0.515026 5.245915 2.340625
v 0.521905 5.279548 2.357234
v 0.526142 5.316041 2.367461
v 0.527572 5.353992 2.370914
v 0.526142 5.391943 2.367461
v 0.521905 5.428436 2.357234
v 0.515026 5.462069 2.340625
v 0.505768 5.491548 2.318274
v 0.494487 5.515740 2.291039
v 0.481616 5.533717 2.259967
v 0.467651 5.544787 2.226252
v 0.460532 5.163197 2.228411
v 0.467651 5.174267 2.264203
v 0.474212 5.192244 2.297189
v 0.479963 5.216436 2.326102
v 0.484683 5.245915 2.349829
v 0.488190 5.279548 2.367461
v 0.490350 5.316041 2.378318
v 0.491079 5.353992 2.381984
v 0.490350 5.391943 2.378318
v 0.488190 5.428436 2.367461
v 0.484683 5.462069 2.349829
v 0.479963 5.491548 2.326102
v 0.474212 5.515740 2.297189
v 0.467651 5.533717 2.264203
v 0.460532 5.544787 2.228411
v 0.453128 5.163197 2.229141
v 0.453128 5.174267 2.265634
v 0.453128 5.216436 2.328745
v 0.453128 5.279548 2.370914
v 0.453128 5.428436 2.370914
v 0.453128 5.491548 2.328745
v 0.453128 5.515740 2.299266
v 0.453128 5.533717 2.265634
v 0.453128 5.544787 2.229141
vn -0.0000 0.9217 0.3879
vn -0.0757 0.9217 0.3804
vn -0.1092 0.8286 0.5490
vn -0.0000 0.8286 0.5598
vn -0.0000 -0.1939 0.9810
vn -0.1914 -0.1939 0.9622
vn -0.1804 -0.3805 0.9070
vn -0.0000 -0.3805 0.9248
vn -0.0000 0.9796 0.2010
vn -0.0392 0.9796 0.1971
vn -0.0000 -0.0000 1.0000
vn -0.1951 -0.0000 0.9808
vn -0.0000 -0.9796 0.2010
vn -0.0392 -0.9796 0.1971
vn -0.0000 -1.0000 -0.0000
vn -0.0000 1.0000 -0.0000
vn -0.0000 0.1939 0.9810
vn -0.1914 0.1939 0.9622
vn -0.0000 -0.9217 0.3879
vn -0.0757 -0.9217 0.3804
vn -0.0000 0.3805 0.9248
vn -0.1804 0.3805 0.9070
vn -0.0000 -0.8286 0.5598
vn -0.1092 -0.8286 0.5490
vn -0.0000 0.5528 0.8333
vn -0.1626 0.5528 0.8173
vn -0.0000 -0.7041 0.7101
vn -0.1385 -0.7041 0.6965
vn -0.0000 0.7041 0.7101
vn -0.1385 0.7041 0.6965
vn -0.0000 -0.5528 0.8333
vn -0.1626 -0.5528 0.8173
vn -0.2142 0.8286 0.5172
vn -0.2718 0.7041 0.6561
vn -0.3539 -0.3805 0.8544
vn -0.3189 -0.5528 0.7699
vn -0.1484 0.9217 0.3584
vn -0.3754 -0.1939 0.9063
vn -0.0769 0.9796 0.1857
vn -0.3827 -0.0000 0.9239
vn -0.0769 -0.9796 0.1857
vn -0.3754 0.1939 0.9063
vn -0.1484 -0.9217 0.3584
vn -0.3539 0.3805 0.8544
vn -0.2142 -0.8286 0.5172
vn -0.3189 0.5528 0.7699
vn -0.2718 -0.7041 0.6561
vn -0.2155 -0.9217 0.3225
vn -0.1116 -0.9796 0.1671
vn -0.5138 0.3805 0.7689
vn -0.5450 0.1939 0.8157
vn -0.3110 -0.8286 0.4654
vn -0.4630 0.5528 0.6929
vn -0.3945 -0.7041 0.5905
vn -0.3945 0.7041 0.5905
vn -0.4630 -0.5528 0.6929
vn -0.3110 0.8286 0.4654
vn -0.5138 -0.3805 0.7689
vn -0.2155 0.9217 0.3225
vn -0.5450 -0.1939 0.8157
vn -0.1117 0.9796 0.1671
vn -0.5556 -0.0000 0.8315
vn -0.6539 -0.3805 0.6539
vn -0.5893 -0.5528 0.5893
vn -0.2743 0.9217 0.2743
vn -0.3958 0.8286 0.3958
vn -0.6937 -0.1939 0.6937
vn -0.1421 0.9796 0.1421
vn -0.7071 -0.0000 0.7071
vn -0.1421 -0.9796 0.1421
vn -0.6937 0.1939 0.6937
vn -0.2743 -0.9217 0.2743
vn -0.6539 0.3805 0.6539
vn -0.3958 -0.8286 0.3958
vn -0.5893 0.5528 0.5893
vn -0.5021 -0.7041 0.5021
vn -0.5021 0.7041 0.5021
vn -0.7689 0.3805 0.5138
vn -0.8157 0.1939 0.5450
vn -0.4654 -0.8286 0.3110
vn -0.3225 -0.9217 0.2155
vn -0.6929 0.5528 0.4630
vn -0.5905 -0.7041 0.3945
vn -0.5905 0.7041 0.3945
vn -0.6929 -0.5528 0.4630
vn -0.4654 0.8287 0.3110
vn -0.7689 -0.3805 0.5138
vn -0.3225 0.9217 0.2155
vn -0.8157 -0.1939 0.5450
vn -0.1671 0.9796 0.1117
vn -0.8315 -0.0000 0.5556
vn -0.1671 -0.9796 0.1117
vn -0.3584 0.9217 0.1484
vn -0.5172 0.8287 0.2142
vn -0.9063 -0.1939 0.3754
vn -0.8544 -0.3805 0.3539
vn -0.1857 0.9796 0.0769
vn -0.9239 -0.0000 0.3827
vn -0.1857 -0.9796 0.0769
vn -0.9063 0.1939 0.3754
vn -0.3584 -0.9217 0.1484
vn -0.8544 0.3805 0.3539
vn -0.5172 -0.8286 0.2142
vn -0.7699 0.5528 0.3189
vn -0.6561 -0.7041 0.2718
vn -0.6561 0.7041 0.2718
vn -0.7699 -0.5528 0.3189
vn -0.8173 0.5528 0.1626
vn -0.9070 0.3805 0.1804
vn -0.6965 -0.7041 0.1385
vn -0.5490 -0.8286 0.1092
vn -0.6965 0.7041 0.1385
vn -0.8173 -0.5528 0.1626
vn -0.5490 0.8286 0.1092
vn -0.9070 -0.3805 0.1804
vn -0.3804 0.9217 0.0757
vn -0.9622 -0.1939 0.1914
vn -0.1971 0.9796 0.0392
vn -0.9808 -0.0000 0.1951
vn -0.1971 -0.9796 0.0392
vn -0.9622 0.1939 0.1914
vn -0.3804 -0.9217 0.0757
vn -0.2010 0.9796 -0.0000
vn -0.3879 0.9217 -0.0000
vn -1.0000 -0.0000 -0.0000
vn -0.9810 -0.1939 -0.0000
vn -0.2010 -0.9796 -0.0000
vn -0.9810 0.1939 -0.0000
vn -0.3879 -0.9217 -0.0000
vn -0.9248 0.3805 -0.0000
vn -0.5598 -0.8286 -0.0000
vn -0.8333 0.5528 -0.0000
vn -0.7101 -0.7041 -0.0000
vn -0.7101 0.7041 -0.0000
vn -0.8333 -0.5528 -0.0000
vn -0.5598 0.8286 -0.0000
vn -0.9248 -0.3805 -0.0000
vn -0.6965 -0.7041 -0.1385
vn -0.5490 -0.8286 -0.1092
vn -0.6965 0.7041 -0.1385
vn -0.8173 0.5528 -0.1626
vn -0.8173 -0.5528 -0.1626
vn -0.5490 0.8286 -0.1092
vn -0.9070 -0.3805 -0.1804
vn -0.3804 0.9217 -0.0757
vn -0.9622 -0.1939 -0.1914
vn -0.1971 0.9796 -0.0392
vn -0.9808 -0.0000 -0.1951
vn -0.1971 -0.9796 -0.0392
vn -0.9622 0.1939 -0.1914
vn -0.3804 -0.9217 -0.0757
vn -0.9070 0.3805 -0.1804
vn -0.9239 -0.0000 -0.3827
vn -0.9063 -0.1939 -0.3754
vn -0.1857 -0.9796 -0.0769
vn -0.1857 0.9796 -0.0769
vn -0.9063 0.1939 -0.3754
vn -0.3584 -0.9217 -0.1484
vn -0.8544 0.3805 -0.3539
vn -0.5172 -0.8286 -0.2142
vn -0.7699 0.5528 -0.3189
vn -0.6561 -0.7041 -0.2718
vn -0.6561 0.7041 -0.2718
vn -0.7699 -0.5528 -0.3189
vn -0.5172 0.8287 -0.2142
vn -0.8544 -0.3805 -0.3539
vn -0.3584 0.9217 -0.1484
vn -0.5905 0.7041 -0.3945
vn -0.6929 0.5528 -0.4630
vn -0.6929 -0.5528 -0.4630
vn -0.5905 -0.7041 -0.3945
vn -0.4654 0.8287 -0.3110
vn -0.7689 -0.3805 -0.5138
vn -0.3225 0.9217 -0.2155
vn -0.8157 -0.1939 -0.5450
vn -0.1671 0.9796 -0.1117
vn -0.8315 -0.0000 -0.5556
vn -0.1671 -0.9796 -0.1117
vn -0.8157 0.1939 -0.5450
vn -0.3225 -0.9217 -0.2155
vn -0.7689 0.3805 -0.5138
vn -0.4654 -0.8286 -0.3110
vn -0.1421 -0.9796 -0.1421
vn -0.1421 0.9796 -0.1421
vn -0.6937 0.1939 -0.6937
vn -0.7071 -0.0000 -0.7071
vn -0.2743 -0.9217 -0.2743
vn -0.6539 0.3805 -0.6539
vn -0.3958 -0.8286 -0.3958
vn -0.5893 0.5528 -0.5893
vn -0.5021 -0.7041 -0.5021
vn -0.5021 0.7041 -0.5021
vn -0.5893 -0.5528 -0.5893
vn -0.3958 0.8286 -0.3958
vn -0.6539 -0.3805 -0.6539
vn -0.2743 0.9217 -0.2743
vn -0.6937 -0.1939 -0.6937
vn -0.4630 -0.5528 -0.6929
vn -0.3945 -0.7041 -0.5905
vn -0.3110 0.8286 -0.4654
vn -0.3945 0.7041 -0.5905
vn -0.5138 -0.3805 -0.7689
vn -0.2155 0.9217 -0.3225
vn -0.5450 -0.1939 -0.8157
vn -0.1116 0.9796 -0.1671
vn -0.5556 -0.0000 -0.8315
vn -0.1116 -0.9796 -0.1671
vn -0.5450 0.1939 -0.8157
vn -0.2155 -0.9217 -0.3225
vn -0.5138 0.3805 -0.7689
vn -0.3110 -0.8287 -0.4654
vn -0.4630 0.5528 -0.6929
vn -0.3754 0.1939 -0.9063
vn -0.3827 -0.0000 -0.9239
vn -0.1485 -0.9217 -0.3584
vn -0.0770 -0.9796 -0.1857
vn -0.3539 0.3805 -0.8544
vn -0.2142 -0.8286 -0.5172
vn -0.3189 0.5528 -0.7699
vn -0.2718 -0.7041 -0.6561
vn -0.2718 0.7041 -0.6561
vn -0.3189 -0.5528 -0.7699
vn -0.2142 0.8286 -0.5172
vn -0.3539 -0.3805 -0.8544
vn -0.1484 0.9217 -0.3584
vn -0.3754 -0.1939 -0.9063
vn -0.0769 0.9796 -0.1857
vn -0.1092 0.8286 -0.5490
vn -0.1385 0.7041 -0.6965
vn -0.1804 -0.3805 -0.9070
vn -0.1626 -0.5528 -0.8173
vn -0.0757 0.9217 -0.3804
vn -0.1914 -0.1939 -0.9622
vn -0.0392 0.9796 -0.1971
vn -0.1951 -0.0000 -0.9808
vn -0.0392 -0.9796 -0.1971
vn -0.1914 0.1939 -0.9622
vn -0.0757 -0.9217 -0.3804
vn -0.1804 0.3805 -0.9070
vn -0.1092 -0.8286 -0.5490
vn -0.1626 0.5528 -0.8173
vn -0.1385 -0.7041 -0.6965
vn -0.0000 0.3805 -0.9248
vn -0.0000 0.1939 -0.9810
vn -0.0000 -0.8286 -0.5598
vn -0.0000 -0.9217 -0.3879
vn -0.0000 0.5528 -0.8333
vn -0.0000 -0.7041 -0.7101
vn -0.0000 0.7041 -0.7101
vn -0.0000 -0.5528 -0.8333
vn -0.0000 0.8286 -0.5598
vn -0.0000 -0.3805 -0.9248
vn -0.0000 0.9217 -0.3879
vn -0.0000 -0.1939 -0.9810
vn -0.0000 0.9796 -0.2010
vn -0.0000 -0.0000 -1.0000
vn -0.0000 -0.9796 -0.2010
vn 0.0757 0.9217 -0.3804
vn 0.1092 0.8286 -0.5490
vn 0.1914 -0.1939 -0.9622
vn 0.1804 -0.3805 -0.9070
vn 0.0392 0.9796 -0.1971
vn 0.1951 -0.0000 -0.9808
vn 0.0392 -0.9796 -0.1971
vn 0.1914 0.1939 -0.9622
vn 0.0757 -0.9217 -0.3804
vn 0.1804 0.3805 -0.9070
vn 0.1092 -0.8286 -0.5490
vn 0.1626 0.5528 -0.8173
vn 0.1385 -0.7041 -0.6965
vn 0.1385 0.7041 -0.6965
vn 0.1626 -0.5528 -0.8173
vn 0.2142 -0.8286 -0.5172
vn 0.1484 -0.9217 -0.3584
vn 0.3189 0.5528 -0.7699
vn 0.3539 0.3805 -0.8544
vn 0.2718 -0.7041 -0.6561
vn 0.2718 0.7041 -0.6561
vn 0.3189 -0.5528 -0.7699
vn 0.2142 0.8286 -0.5172
vn 0.3539 -0.3805 -0.8544
vn 0.1484 0.9217 -0.3584
vn 0.3754 -0.1939 -0.9063
vn 0.0769 0.9796 -0.1857
vn 0.3827 -0.0000 -0.9239
vn 0.0769 -0.9796 -0.1857
vn 0.3754 0.1939 -0.9063
vn 0.5450 -0.1939 -0.8157
vn 0.5138 -0.3805 -0.7689
vn 0.1117 0.9796 -0.1671
vn 0.2155 0.9217 -0.3225
vn 0.5556 -0.0000 -0.8315
vn 0.1116 -0.9796 -0.1671
vn 0.5450 0.1939 -0.8157
vn 0.2155 -0.9217 -0.3225
vn 0.5138 0.3805 -0.7689
vn 0.3110 -0.8286 -0.4654
vn 0.4630 0.5528 -0.6929
vn 0.3945 -0.7041 -0.5905
vn 0.3945 0.7041 -0.5905
vn 0.4630 -0.5528 -0.6929
vn 0.3110 0.8286 -0.4654
vn 0.5893 0.5528 -0.5893
vn 0.6539 0.3805 -0.6539
vn 0.5021 -0.7041 -0.5021
vn 0.3958 -0.8286 -0.3958
vn 0.5021 0.7041 -0.5021
vn 0.5893 -0.5528 -0.5893
vn 0.3958 0.8286 -0.3958
vn 0.6539 -0.3805 -0.6539
vn 0.2743 0.9217 -0.2743
vn 0.6937 -0.1939 -0.6937
vn 0.1421 0.9796 -0.1421
vn 0.7071 -0.0000 -0.7071
vn 0.1421 -0.9796 -0.1421
vn 0.6937 0.1939 -0.6937
vn 0.2743 -0.9217 -0.2743
vn 0.1671 0.9796 -0.1117
vn 0.3225 0.9217 -0.2155
vn 0.8315 -0.0000 -0.5556
vn 0.8157 -0.1939 -0.5450
vn 0.1671 -0.9796 -0.1117
vn 0.8157 0.1939 -0.5450
vn 0.3225 -0.9217 -0.2155
vn 0.7689 0.3805 -0.5138
vn 0.4654 -0.8286 -0.3110
vn 0.6929 0.5528 -0.4630
vn 0.5905 -0.7041 -0.3945
vn 0.5905 0.7041 -0.3945
vn 0.6929 -0.5528 -0.4630
vn 0.4654 0.8286 -0.3110
vn 0.7689 -0.3805 -0.5138
vn 0.6561 -0.7041 -0.2718
vn 0.5172 -0.8286 -0.2142
vn 0.6561 0.7041 -0.2718
vn 0.7699 0.5528 -0.3189
vn 0.7699 -0.5528 -0.3189
vn 0.5172 0.8287 -0.2142
vn 0.8544 -0.3805 -0.3539
vn 0.3584 0.9217 -0.1484
vn 0.9063 -0.1939 -0.3754
vn 0.1857 0.9796 -0.0769
vn 0.9239 -0.0000 -0.3827
vn 0.1857 -0.9796 -0.0769
vn 0.9063 0.1939 -0.3754
vn 0.3584 -0.9217 -0.1484
vn 0.8544 0.3805 -0.3539
vn 0.9808 -0.0000 -0.1951
vn 0.9622 -0.1939 -0.1914
vn 0.1971 -0.9796 -0.0392
vn 0.1971 0.9796 -0.0392
vn 0.9622 0.1939 -0.1914
vn 0.3804 -0.9217 -0.0757
vn 0.9070 0.3805 -0.1804
vn 0.5490 -0.8286 -0.1092
vn 0.8173 0.5528 -0.1626
vn 0.6965 -0.7041 -0.1385
vn 0.6965 0.7041 -0.1385
vn 0.8173 -0.5528 -0.1626
vn 0.5490 0.8286 -0.1092
vn 0.9070 -0.3805 -0.1804
vn 0.3804 0.9217 -0.0757
vn 0.7101 0.7041 -0.0000
vn 0.8333 0.5528 -0.0000
vn 0.8333 -0.5528 -0.0000
vn 0.7101 -0.7041 -0.0000
vn 0.5598 0.8286 -0.0000
vn 0.9248 -0.3805 -0.0000
vn 0.3879 0.9217 -0.0000
vn 0.9810 -0.1939 -0.0000
vn 0.2010 0.9796 -0.0000
vn 1.0000 -0.0000 -0.0000
vn 0.2010 -0.9796 -0.0000
vn 0.9810 0.1939 -0.0000
vn 0.3879 -0.9217 -0.0000
vn 0.9248 0.3805 -0.0000
vn 0.5598 -0.8286 -0.0000
vn 0.1971 0.9796 0.0392
vn 0.9622 0.1939 0.1914
vn 0.9808 -0.0000 0.1951
vn 0.3804 -0.9217 0.0757
vn 0.1971 -0.9796 0.0392
vn 0.9070 0.3805 0.1804
vn 0.5490 -0.8286 0.1092
vn 0.8173 0.5528 0.1626
vn 0.6965 -0.7041 0.1385
vn 0.6965 0.7041 0.1385
vn 0.8173 -0.5528 0.1626
vn 0.5490 0.8286 0.1092
vn 0.9070 -0.3805 0.1804
vn 0.3804 0.9217 0.0757
vn 0.9622 -0.1939 0.1914
vn 0.5172 0.8287 0.2142
vn 0.6561 0.7041 0.2718
vn 0.8544 -0.3805 0.3539
vn 0.7699 -0.5528 0.3189
vn 0.3584 0.9217 0.1484
vn 0.9063 -0.1939 0.3754
vn 0.1857 0.9796 0.0769
vn 0.9239 -0.0000 0.3827
vn 0.1857 -0.9796 0.0769
vn 0.9063 0.1939 0.3754
vn 0.3584 -0.9217 0.1484
vn 0.8544 0.3805 0.3539
vn 0.5172 -0.8286 0.2142
vn 0.7699 0.5528 0.3189
vn 0.6561 -0.7041 0.2718
vn 0.3225 -0.9217 0.2155
vn 0.1671 -0.9796 0.1117
vn 0.7689 0.3805 0.5138
vn 0.8157 0.1939 0.5450
vn 0.4654 -0.8286 0.3110
vn 0.6929 0.5528 0.4630
vn 0.5905 -0.7041 0.3945
vn 0.5905 0.7041 0.3945
vn 0.6929 -0.5528 0.4630
vn 0.4654 0.8286 0.3110
vn 0.7689 -0.3805 0.5138
vn 0.3225 0.9217 0.2155
vn 0.8157 -0.1939 0.5450
vn 0.1671 0.9796 0.1117
vn 0.8315 -0.0000 0.5556
vn 0.6539 -0.3805 0.6539
vn 0.5893 -0.5528 0.5893
vn 0.2743 0.9217 0.2743
vn 0.3958 0.8286 0.3958
vn 0.6937 -0.1939 0.6937
vn 0.1421 0.9796 0.1421
vn 0.7071 -0.0000 0.7071
vn 0.1421 -0.9796 0.1421
vn 0.6937 0.1939 0.6937
vn 0.2743 -0.9217 0.2743
vn 0.6539 0.3805 0.6539
vn 0.3958 -0.8286 0.3958
vn 0.5893 0.5528 0.5893
vn 0.5021 -0.7041 0.5021
vn 0.5021 0.7041 0.5021
vn 0.5138 0.3805 0.7689
vn 0.5450 0.1939 0.8157
vn 0.3110 -0.8286 0.4654
vn 0.2155 -0.9217 0.3225
vn 0.4630 0.5528 0.6929
vn 0.3945 -0.7041 0.5905
vn 0.3945 0.7041 0.5905
vn 0.4630 -0.5528 0.6929
vn 0.3110 0.8286 0.4654
vn 0.5138 -0.3805 0.7689
vn 0.2155 0.9217 0.3225
vn 0.5450 -0.1939 0.8157
vn 0.1116 0.9796 0.1671
vn 0.5556 -0.0000 0.8315
vn 0.1116 -0.9796 0.1671
vn 0.1484 0.9217 0.3584
vn 0.2142 0.8286 0.5172
vn 0.3754 -0.1939 0.9063
vn 0.3539 -0.3805 0.8544
vn 0.0769 0.9796 0.1857
vn 0.3827 -0.0000 0.9239
vn 0.0769 -0.9796 0.1857
vn 0.3754 0.1939 0.9063
vn 0.1485 -0.9217 0.3584
vn 0.3539 0.3805 0.8544
vn 0.2142 -0.8286 0.5172
vn 0.3189 0.5528 0.7699
vn 0.2718 -0.7041 0.6561
vn 0.2718 0.7041 0.6561
vn 0.3189 -0.5528 0.7699
vn 0.1092 -0.8286 0.5490
vn 0.0757 -0.9217 0.3804
vn 0.1626 0.5528 0.8173
vn 0.1804 0.3805 0.9070
vn 0.1385 -0.7041 0.6965
vn 0.1385 0.7041 0.6965
vn 0.1626 -0.5528 0.8173
vn 0.1092 0.8286 0.5490
vn 0.1804 -0.3805 0.9070
vn 0.0757 0.9217 0.3804
vn 0.1914 -0.1939 0.9622
vn 0.0392 0.9796 0.1971
vn 0.1951 -0.0000 0.9808
vn 0.0392 -0.9796 0.1971
vn 0.1914 0.1939 0.9622
vt 0.900370 0.915676
vt 0.897969 0.917982
vt 0.891920 0.914376
vt 0.895406 0.911028
vt 0.395788 0.944130
vt 0.403104 0.943147
vt 0.400981 0.950514
vt 0.394089 0.951440
vt 0.905756 0.921264
vt 0.904532 0.922440
vt 0.396735 0.935991
vt 0.404194 0.934988
vt 0.948947 0.198621
vt 0.950171 0.199797
vt 0.943346 0.205419
vt 0.911357 0.927579
vt 0.396894 0.927335
vt 0.404210 0.926351
vt 0.954334 0.191601
vt 0.956735 0.193907
vt 0.396260 0.918495
vt 0.403151 0.917568
vt 0.959298 0.184628
vt 0.962783 0.187976
vt 0.394856 0.909810
vt 0.401058 0.908976
vt 0.963649 0.177971
vt 0.968085 0.182232
vt 0.392737 0.901614
vt 0.398012 0.900905
vt 0.967219 0.171885
vt 0.972436 0.176896
vt 0.389984 0.894222
vt 0.394128 0.893665
vt 0.969873 0.166604
vt 0.975669 0.172172
vt 0.397676 0.892842
vt 0.402527 0.899857
vt 0.675841 0.960609
vt 0.680901 0.957721
vt 0.686616 0.964061
vt 0.682062 0.966660
vt 0.896082 0.920694
vt 0.889182 0.918313
vt 0.670529 0.953544
vt 0.675901 0.950478
vt 0.903570 0.923822
vt 0.666330 0.945735
vt 0.671807 0.942610
vt 0.951133 0.201179
vt 0.410472 0.924899
vt 0.410579 0.933507
vt 0.958621 0.196619
vt 0.409050 0.916200
vt 0.965522 0.191913
vt 0.406367 0.907744
vt 0.971570 0.187243
vt 0.976534 0.182788
vt 0.959920 0.199632
vt 0.951795 0.202715
vt 0.666928 0.926220
vt 0.672971 0.923034
vt 0.675192 0.931037
vt 0.668778 0.934419
vt 0.967408 0.196287
vt 0.666330 0.918328
vt 0.671769 0.915461
vt 0.973971 0.192811
vt 0.406108 0.898512
vt 0.410579 0.906162
vt 0.692054 0.961194
vt 0.697450 0.966816
vt 0.692825 0.969254
vt 0.887295 0.922688
vt 0.880732 0.922339
vt 0.883133 0.916772
vt 0.686944 0.954536
vt 0.894783 0.923707
vt 0.682316 0.947096
vt 0.902908 0.925358
vt 0.678348 0.939162
vt 0.693737 0.951174
vt 0.698168 0.958169
vt 0.894121 0.926906
vt 0.886334 0.927331
vt 0.689528 0.943528
vt 0.902570 0.926989
vt 0.685701 0.935523
vt 0.952133 0.204346
vt 0.682404 0.927469
vt 0.960583 0.202831
vt 0.679765 0.919673
vt 0.968370 0.200931
vt 0.677883 0.912436
vt 0.975195 0.198721
vt 0.671632 0.908609
vt 0.676831 0.906036
vt 0.702650 0.964243
vt 0.879508 0.928250
vt 0.687048 0.916265
vt 0.690136 0.923851
vt 0.968370 0.205666
vt 0.960583 0.206092
vt 0.684437 0.909369
vt 0.975195 0.204748
vt 0.682406 0.903428
vt 0.704723 0.955102
vt 0.708224 0.961634
vt 0.886334 0.932066
vt 0.879508 0.934277
vt 0.701020 0.947766
vt 0.894121 0.930167
vt 0.697259 0.939910
vt 0.902570 0.928652
vt 0.693584 0.931834
vt 0.952133 0.206009
vt 0.894783 0.933366
vt 0.887295 0.936710
vt 0.705214 0.936381
vt 0.708513 0.944443
vt 0.902908 0.930283
vt 0.701695 0.928237
vt 0.951795 0.207639
vt 0.698091 0.920322
vt 0.959920 0.209291
vt 0.694541 0.912941
vt 0.967408 0.210310
vt 0.691181 0.906378
vt 0.713959 0.959091
vt 0.715895 0.965115
vt 0.711389 0.967113
vt 0.688140 0.900884
vt 0.711466 0.952110
vt 0.880732 0.940187
vt 0.697854 0.903578
vt 0.701955 0.909830
vt 0.719634 0.956709
vt 0.720354 0.963244
vt 0.693815 0.898502
vt 0.718139 0.949310
vt 0.889182 0.941085
vt 0.883133 0.945755
vt 0.715928 0.941331
vt 0.896082 0.936379
vt 0.713085 0.933078
vt 0.903570 0.931819
vt 0.709720 0.924869
vt 0.951133 0.209176
vt 0.705962 0.917019
vt 0.958621 0.212304
vt 0.965522 0.214685
vt 0.904532 0.933201
vt 0.897969 0.939091
vt 0.717353 0.921861
vt 0.720571 0.930128
vt 0.950171 0.210558
vt 0.713448 0.914068
vt 0.956735 0.215016
vt 0.709007 0.907050
vt 0.962783 0.218622
vt 0.704200 0.901076
vt 0.725031 0.954582
vt 0.724595 0.961572
vt 0.886619 0.950766
vt 0.882268 0.956102
vt 0.878169 0.950210
vt 0.724485 0.946809
vt 0.891920 0.945022
vt 0.722980 0.938551
vt 0.968085 0.221237
vt 0.963649 0.225498
vt 0.959298 0.221970
vt 0.891055 0.955027
vt 0.887484 0.961113
vt 0.730261 0.944702
vt 0.729942 0.952790
vt 0.895406 0.948370
vt 0.729397 0.936210
vt 0.900370 0.941397
vt 0.727384 0.927642
vt 0.905756 0.934377
vt 0.724299 0.919326
vt 0.948947 0.211734
vt 0.720261 0.911583
vt 0.954334 0.217322
vt 0.715424 0.904709
vt 0.709976 0.898969
vt 0.730292 0.917365
vt 0.733262 0.925718
vt 0.947508 0.212657
vt 0.907195 0.935301
vt 0.726139 0.909659
vt 0.951511 0.219134
vt 0.720961 0.902897
vt 0.955199 0.224601
vt 0.893618 0.965050
vt 0.891646 0.970768
vt 0.884831 0.966394
vt 0.444127 0.952832
vt 0.448465 0.951201
vt 0.453265 0.957869
vt 0.449856 0.959150
vt 0.896271 0.958375
vt 0.439285 0.945517
vt 0.444386 0.943600
vt 0.899504 0.951001
vt 0.435516 0.937487
vt 0.441184 0.935356
vt 0.903193 0.943209
vt 0.432965 0.929049
vt 0.438982 0.926788
vt 0.902067 0.960682
vt 0.900433 0.967762
vt 0.450425 0.941959
vt 0.453601 0.949806
vt 0.904058 0.952813
vt 0.447894 0.933533
vt 0.906330 0.944457
vt 0.446106 0.924853
vt 0.908794 0.935937
vt 0.437865 0.918223
vt 0.445128 0.916250
vt 0.945909 0.213294
vt 0.437876 0.909992
vt 0.444999 0.908057
vt 0.948374 0.220382
vt 0.439013 0.902411
vt 0.445724 0.900588
vt 0.950645 0.226413
vt 0.899219 0.973781
vt 0.457300 0.956773
vt 0.944212 0.213618
vt 0.910492 0.936261
vt 0.452955 0.906524
vt 0.453240 0.914687
vt 0.945044 0.221019
vt 0.453218 0.899143
vt 0.945811 0.227336
vt 0.907669 0.969144
vt 0.907259 0.975317
vt 0.459337 0.948700
vt 0.461807 0.955904
vt 0.908220 0.961857
vt 0.457170 0.940659
vt 0.908893 0.953736
vt 0.455388 0.932089
vt 0.909660 0.945094
vt 0.454061 0.923319
vt 0.464361 0.939749
vt 0.465453 0.947927
vt 0.913822 0.953736
vt 0.914494 0.961857
vt 0.463379 0.931078
vt 0.913055 0.945094
vt 0.462544 0.922246
vt 0.912223 0.936261
vt 0.461888 0.913592
vt 0.942481 0.213618
vt 0.461437 0.905450
vt 0.941648 0.221019
vt 0.461208 0.898132
vt 0.940881 0.227336
vt 0.915046 0.969144
vt 0.915456 0.975317
vt 0.466612 0.955296
vt 0.470120 0.904878
vt 0.470741 0.913009
vt 0.938318 0.220382
vt 0.940783 0.213294
vt 0.469387 0.897593
vt 0.471530 0.954972
vt 0.471182 0.961350
vt 0.467794 0.961573
vt 0.461210 0.891919
vt 0.468571 0.891435
vt 0.471713 0.947514
vt 0.920647 0.960682
vt 0.922281 0.967762
vt 0.471722 0.939264
vt 0.918656 0.952813
vt 0.471558 0.930539
vt 0.916385 0.944457
vt 0.471227 0.921673
vt 0.913920 0.935937
vt 0.923210 0.951001
vt 0.926443 0.958375
vt 0.479612 0.930493
vt 0.478970 0.939223
vt 0.919522 0.943209
vt 0.479777 0.921625
vt 0.915519 0.935301
vt 0.479459 0.912959
vt 0.939184 0.212657
vt 0.478670 0.904829
vt 0.935181 0.219134
vt 0.477441 0.897547
vt 0.936047 0.226413
vt 0.931493 0.224601
vt 0.475819 0.891393
vt 0.477877 0.947479
vt 0.476373 0.954944
vt 0.929097 0.965050
vt 0.485060 0.897996
vt 0.486759 0.905306
vt 0.927395 0.221970
vt 0.932358 0.217322
vt 0.935230 0.961113
vt 0.937884 0.966394
vt 0.931068 0.970768
vt 0.483708 0.947823
vt 0.480955 0.955214
vt 0.931660 0.955027
vt 0.485827 0.939627
vt 0.927309 0.948370
vt 0.487231 0.930942
vt 0.922345 0.941397
vt 0.487865 0.922101
vt 0.916959 0.934377
vt 0.487706 0.913445
vt 0.937745 0.211734
vt 0.924746 0.939091
vt 0.930794 0.945022
vt 0.495181 0.923085
vt 0.494122 0.931868
vt 0.918183 0.933201
vt 0.495165 0.914448
vt 0.936521 0.210558
vt 0.494074 0.906290
vt 0.929958 0.215016
vt 0.491952 0.898923
vt 0.923909 0.218622
vt 0.940447 0.956102
vt 0.943680 0.960826
vt 0.488983 0.948532
vt 0.485099 0.955771
vt 0.936096 0.950766
vt 0.492029 0.940461
vt 0.921171 0.214685
vt 0.928071 0.212304
vt 0.924087 0.316567
vt 0.928641 0.319166
vt 0.922926 0.325506
vt 0.917866 0.322618
vt 0.493497 0.949579
vt 0.488646 0.956594
vt 0.939581 0.945755
vt 0.944545 0.950210
vt 0.497338 0.941692
vt 0.933533 0.941085
vt 0.500021 0.933237
vt 0.926632 0.936379
vt 0.501443 0.924538
vt 0.919144 0.931819
vt 0.501550 0.915929
vt 0.935559 0.209176
vt 0.912555 0.329684
vt 0.917926 0.332749
vt 0.913832 0.340617
vt 0.908356 0.337492
vt 0.910803 0.348808
vt 0.917218 0.352190
vt 0.914996 0.360193
vt 0.908953 0.357007
vt 0.919807 0.930283
vt 0.927931 0.933366
vt 0.920373 0.344066
vt 0.934897 0.207639
vt 0.924341 0.336131
vt 0.926772 0.209291
vt 0.928969 0.328692
vt 0.919284 0.210310
vt 0.934079 0.322033
vt 0.915122 0.216226
vt 0.912721 0.210658
vt 0.934850 0.313973
vt 0.939475 0.316412
vt 0.501550 0.943274
vt 0.497079 0.950924
vt 0.935419 0.936710
vt 0.941982 0.940187
vt 0.913794 0.367766
vt 0.908356 0.364899
vt 0.940193 0.325058
vt 0.935763 0.332053
vt 0.911497 0.204748
vt 0.918323 0.205666
vt 0.944675 0.318984
vt 0.919908 0.370791
vt 0.918857 0.377191
vt 0.913657 0.374618
vt 0.936381 0.932066
vt 0.943206 0.934277
vt 0.921790 0.363554
vt 0.928594 0.930167
vt 0.924430 0.355759
vt 0.920144 0.928652
vt 0.927727 0.347704
vt 0.934559 0.206009
vt 0.931553 0.339700
vt 0.926110 0.206092
vt 0.920144 0.926989
vt 0.928594 0.926906
vt 0.935610 0.351393
vt 0.932162 0.359377
vt 0.934559 0.204346
vt 0.939285 0.343317
vt 0.926110 0.202831
vt 0.943046 0.335461
vt 0.918323 0.200931
vt 0.946748 0.328126
vt 0.911497 0.198721
vt 0.950249 0.321593
vt 0.926463 0.373858
vt 0.924431 0.379800
vt 0.936381 0.927331
vt 0.943206 0.928250
vt 0.929073 0.366962
vt 0.912721 0.192811
vt 0.919284 0.196287
vt 0.955984 0.324137
vt 0.953491 0.331117
vt 0.933206 0.376849
vt 0.930166 0.382343
vt 0.953415 0.316114
vt 0.957921 0.318113
vt 0.936566 0.370286
vt 0.927931 0.923707
vt 0.935419 0.922687
vt 0.940116 0.362905
vt 0.919807 0.925358
vt 0.943720 0.354990
vt 0.934897 0.202715
vt 0.947239 0.346846
vt 0.926772 0.199632
vt 0.950539 0.338785
vt 0.951746 0.358358
vt 0.947987 0.366208
vt 0.935559 0.201179
vt 0.919144 0.923822
vt 0.955111 0.350149
vt 0.928071 0.196619
vt 0.957953 0.341896
vt 0.921170 0.191913
vt 0.960165 0.333917
vt 0.915122 0.187243
vt 0.961659 0.326518
vt 0.939879 0.379650
vt 0.935841 0.384725
vt 0.962379 0.319984
vt 0.943981 0.373397
vt 0.926632 0.920694
vt 0.933533 0.918313
vt 0.967056 0.328645
vt 0.966511 0.336419
vt 0.910158 0.182788
vt 0.914256 0.176896
vt 0.918607 0.182232
vt 0.966620 0.321655
vt 0.951032 0.376177
vt 0.946226 0.382151
vt 0.924746 0.917982
vt 0.930794 0.914376
vt 0.955473 0.369159
vt 0.918183 0.922440
vt 0.959378 0.361367
vt 0.936521 0.199797
vt 0.962597 0.353100
vt 0.929958 0.193907
vt 0.965005 0.344676
vt 0.923909 0.187976
vt 0.916959 0.921264
vt 0.969409 0.355585
vt 0.966325 0.363901
vt 0.932358 0.191600
vt 0.937745 0.198621
vt 0.971422 0.347017
vt 0.927395 0.184628
vt 0.972286 0.338526
vt 0.923044 0.177971
vt 0.971968 0.330437
vt 0.919473 0.171885
vt 0.927309 0.911028
vt 0.931660 0.907500
vt 0.936096 0.911761
vt 0.957450 0.378518
vt 0.952001 0.384258
vt 0.922345 0.915676
vt 0.962286 0.371644
vt 0.358886 0.890287
vt 0.362294 0.891568
vt 0.357495 0.898235
vt 0.353156 0.896605
vt 0.916820 0.166604
vt 0.923635 0.162230
vt 0.925607 0.167948
vt 0.919522 0.913864
vt 0.923210 0.908397
vt 0.968164 0.373569
vt 0.962987 0.380331
vt 0.915519 0.920340
vt 0.972317 0.365863
vt 0.939184 0.197697
vt 0.975287 0.357509
vt 0.935181 0.189788
vt 0.344545 0.911950
vt 0.350213 0.914080
vt 0.348011 0.922649
vt 0.341994 0.920387
vt 0.931493 0.181997
vt 0.348314 0.903919
vt 0.353415 0.905837
vt 0.928260 0.174623
vt 0.938318 0.188540
vt 0.940783 0.197061
vt 0.356923 0.915903
vt 0.355135 0.924584
vt 0.936047 0.180185
vt 0.359454 0.907477
vt 0.934056 0.172316
vt 0.362630 0.899630
vt 0.932422 0.165236
vt 0.366329 0.892664
vt 0.931208 0.159217
vt 0.916385 0.912615
vt 0.918656 0.906585
vt 0.346905 0.939444
vt 0.354028 0.941379
vt 0.354753 0.948848
vt 0.348043 0.947026
vt 0.913920 0.919704
vt 0.346894 0.931213
vt 0.354157 0.933186
vt 0.939248 0.157680
vt 0.939658 0.163853
vt 0.913055 0.911979
vt 0.913822 0.905661
vt 0.361984 0.942913
vt 0.362247 0.950293
vt 0.912223 0.919380
vt 0.362269 0.934750
vt 0.942481 0.196736
vt 0.363091 0.926117
vt 0.941648 0.187904
vt 0.364418 0.917348
vt 0.940881 0.179261
vt 0.366199 0.908777
vt 0.940209 0.171141
vt 0.368366 0.900736
vt 0.370836 0.893533
vt 0.372408 0.918359
vt 0.371573 0.927191
vt 0.945811 0.179261
vt 0.945044 0.187904
vt 0.373390 0.909687
vt 0.946483 0.171140
vt 0.374482 0.901510
vt 0.947035 0.163854
vt 0.375641 0.894141
vt 0.947445 0.157680
vt 0.909660 0.911979
vt 0.908893 0.905661
vt 0.370467 0.943986
vt 0.370237 0.951304
vt 0.910492 0.919380
vt 0.370918 0.935844
vt 0.944211 0.196736
vt 0.376823 0.887863
vt 0.380211 0.888086
vt 0.380560 0.894465
vt 0.379150 0.944558
vt 0.378417 0.951843
vt 0.908794 0.919704
vt 0.906330 0.912615
vt 0.379771 0.936427
vt 0.945909 0.197061
vt 0.380256 0.927763
vt 0.948374 0.188540
vt 0.380587 0.918898
vt 0.950645 0.180185
vt 0.380751 0.910172
vt 0.952636 0.172316
vt 0.380742 0.901922
vt 0.954270 0.165236
vt 0.377600 0.958002
vt 0.370239 0.957517
vt 0.955199 0.181997
vt 0.951511 0.189788
vt 0.388000 0.910214
vt 0.388641 0.918944
vt 0.958432 0.174623
vt 0.386906 0.901957
vt 0.961085 0.167948
vt 0.385403 0.894492
vt 0.386470 0.951889
vt 0.384848 0.958043
vt 0.903193 0.913864
vt 0.899504 0.908397
vt 0.904058 0.906585
vt 0.387699 0.944607
vt 0.907195 0.920340
vt 0.388488 0.936477
vt 0.947508 0.197697
vt 0.388806 0.927812
vt 0.963057 0.162230
s 1
usemtl Material.001
f 794/564/97 335/565/98 334/566/99 793/567/100
f 317/568/101 328/569/102 327/570/103 790/571/104
f 795/572/105 336/573/106 335/565/98 794/564/97
f 318/574/107 329/575/108 328/569/102 317/568/101
f 787/576/109 322/577/110 314/578/111
f 321/579/112 336/573/106 795/572/105
f 319/580/113 330/581/114 329/575/108 318/574/107
f 788/582/115 323/583/116 322/577/110 787/576/109
f 791/584/117 331/585/118 330/581/114 319/580/113
f 315/586/119 324/587/120 323/583/116 788/582/115
f 320/588/121 332/589/122 331/585/118 791/584/117
f 789/590/123 325/591/124 324/587/120 315/586/119
f 792/592/125 333/593/126 332/589/122 320/588/121
f 316/594/127 326/595/128 325/591/124 789/590/123
f 793/596/100 334/597/99 333/593/126 792/592/125
f 790/598/104 327/599/103 326/595/128 316/594/127
f 334/597/99 349/600/129 348/601/130 333/593/126
f 327/602/103 342/603/131 341/604/132 326/605/128
f 335/565/98 350/606/133 349/607/129 334/566/99
f 328/608/102 343/609/134 342/603/131 327/602/103
f 336/573/106 351/610/135 350/606/133 335/565/98
f 329/611/108 344/612/136 343/609/134 328/608/102
f 322/577/110 337/613/137 314/578/111
f 321/579/112 351/610/135 336/573/106
f 330/581/114 345/614/138 344/615/136 329/575/108
f 323/583/116 338/616/139 337/613/137 322/577/110
f 331/585/118 346/617/140 345/614/138 330/581/114
f 324/587/120 339/618/141 338/616/139 323/583/116
f 332/589/122 347/619/142 346/617/140 331/585/118
f 325/591/124 340/620/143 339/618/141 324/587/120
f 333/593/126 348/601/130 347/619/142 332/589/122
f 326/595/128 341/621/132 340/620/143 325/591/124
f 338/616/139 353/622/144 352/623/145 337/613/137
f 346/624/140 361/625/146 360/626/147 345/627/138
f 339/618/141 354/628/148 353/622/144 338/616/139
f 347/629/142 362/630/149 361/625/146 346/624/140
f 340/620/143 355/631/150 354/628/148 339/618/141
f 348/601/130 363/632/151 362/633/149 347/619/142
f 341/604/132 356/634/152 355/635/150 340/636/143
f 349/607/129 364/637/153 363/638/151 348/639/130
f 342/603/131 357/640/154 356/634/152 341/604/132
f 350/606/133 365/641/155 364/637/153 349/607/129
f 343/609/134 358/642/156 357/640/154 342/603/131
f 351/610/135 366/643/157 365/641/155 350/606/133
f 344/612/136 359/644/158 358/642/156 343/609/134
f 337/613/137 352/623/145 314/578/111
f 321/579/112 366/643/157 351/610/135
f 345/627/138 360/626/147 359/644/158 344/612/136
f 357/640/154 372/645/159 371/646/160 356/634/152
f 365/641/155 380/647/161 379/648/162 364/637/153
f 358/642/156 373/649/163 372/645/159 357/640/154
f 366/643/157 381/650/164 380/647/161 365/641/155
f 359/644/158 374/651/165 373/649/163 358/642/156
f 352/623/145 367/652/166 314/578/111
f 321/579/112 381/650/164 366/643/157
f 360/626/147 375/653/167 374/651/165 359/644/158
f 353/622/144 368/654/168 367/652/166 352/623/145
f 361/625/146 376/655/169 375/653/167 360/626/147
f 354/628/148 369/656/170 368/654/168 353/622/144
f 362/630/149 377/657/171 376/655/169 361/625/146
f 355/631/150 370/658/172 369/656/170 354/628/148
f 363/659/151 378/660/173 377/657/171 362/630/149
f 356/634/152 371/646/160 370/661/172 355/635/150
f 364/637/153 379/648/162 378/662/173 363/638/151
f 376/655/169 391/663/174 390/664/175 375/653/167
f 369/656/170 384/665/176 383/666/177 368/654/168
f 377/657/171 392/667/178 391/663/174 376/655/169
f 370/658/172 385/668/179 384/665/176 369/656/170
f 378/660/173 393/669/180 392/667/178 377/657/171
f 371/646/160 386/670/181 385/671/179 370/661/172
f 379/648/162 394/672/182 393/673/180 378/662/173
f 372/645/159 387/674/183 386/670/181 371/646/160
f 380/647/161 395/675/184 394/672/182 379/648/162
f 373/649/163 388/676/185 387/674/183 372/645/159
f 381/650/164 396/677/186 395/675/184 380/647/161
f 374/651/165 389/678/187 388/676/185 373/649/163
f 367/652/166 382/679/188 314/578/111
f 321/579/112 396/677/186 381/650/164
f 375/653/167 390/664/175 389/678/187 374/651/165
f 368/654/168 383/666/177 382/679/188 367/652/166
f 395/675/184 410/680/189 409/681/190 394/672/182
f 388/676/185 403/682/191 402/683/192 387/674/183
f 396/677/186 411/684/193 410/680/189 395/675/184
f 389/678/187 404/685/194 403/682/191 388/676/185
f 382/679/188 397/686/195 314/578/111
f 321/579/112 411/684/193 396/677/186
f 390/664/175 405/687/196 404/685/194 389/678/187
f 383/666/177 398/688/197 397/686/195 382/679/188
f 391/663/174 406/689/198 405/687/196 390/664/175
f 384/665/176 399/690/199 398/688/197 383/666/177
f 392/667/178 407/691/200 406/689/198 391/663/174
f 385/671/179 400/692/201 399/693/199 384/694/176
f 393/669/180 408/695/202 407/691/200 392/667/178
f 386/670/181 401/696/203 400/692/201 385/671/179
f 394/672/182 409/681/190 408/697/202 393/673/180
f 387/674/183 402/683/192 401/696/203 386/670/181
f 407/691/200 422/698/204 421/699/205 406/689/198
f 400/692/201 415/700/206 414/701/207 399/693/199
f 408/695/202 423/702/208 422/698/204 407/691/200
f 401/696/203 416/703/209 415/700/206 400/692/201
f 409/681/190 424/704/210 423/705/208 408/697/202
f 402/683/192 417/706/211 416/703/209 401/696/203
f 410/680/189 425/707/212 424/704/210 409/681/190
f 403/682/191 418/708/213 417/706/211 402/683/192
f 411/684/193 426/709/214 425/707/212 410/680/189
f 404/685/194 419/710/215 418/708/213 403/682/191
f 397/686/195 412/711/216 314/578/111
f 321/579/112 426/709/214 411/684/193
f 405/687/196 420/712/217 419/710/215 404/685/194
f 398/688/197 413/713/218 412/711/216 397/686/195
f 406/689/198 421/699/205 420/712/217 405/687/196
f 399/690/199 414/714/207 413/713/218 398/688/197
f 426/709/214 441/715/219 440/716/220 425/707/212
f 419/710/215 434/717/221 433/718/222 418/708/213
f 412/711/216 427/719/223 314/578/111
f 321/579/112 441/715/219 426/709/214
f 420/712/217 435/720/224 434/717/221 419/710/215
f 413/713/218 428/721/225 427/719/223 412/711/216
f 421/699/205 436/722/226 435/720/224 420/712/217
f 414/714/207 429/723/227 428/721/225 413/713/218
f 422/698/204 437/724/228 436/722/226 421/699/205
f 415/700/206 430/725/229 429/726/227 414/701/207
f 423/705/208 438/727/230 437/728/228 422/729/204
f 416/703/209 431/730/231 430/725/229 415/700/206
f 424/704/210 439/731/232 438/727/230 423/705/208
f 417/706/211 432/732/233 431/730/231 416/703/209
f 425/707/212 440/716/220 439/731/232 424/704/210
f 418/708/213 433/718/222 432/732/233 417/706/211
f 430/733/229 445/734/234 444/735/235 429/723/227
f 438/727/230 453/736/236 452/737/237 437/728/228
f 431/730/231 446/738/238 445/739/234 430/725/229
f 439/731/232 454/740/239 453/736/236 438/727/230
f 432/732/233 447/741/240 446/738/238 431/730/231
f 440/716/220 455/742/241 454/740/239 439/731/232
f 433/718/222 448/743/242 447/741/240 432/732/233
f 441/715/219 456/744/243 455/742/241 440/716/220
f 434/717/221 449/745/244 448/743/242 433/718/222
f 427/719/223 442/746/245 314/578/111
f 321/579/112 456/744/243 441/715/219
f 435/720/224 450/747/246 449/745/244 434/717/221
f 428/721/225 443/748/247 442/746/245 427/719/223
f 436/722/226 451/749/248 450/747/246 435/720/224
f 429/723/227 444/735/235 443/748/247 428/721/225
f 437/724/228 452/750/237 451/749/248 436/722/226
f 449/745/244 464/751/249 463/752/250 448/743/242
f 442/746/245 457/753/251 314/578/111
f 321/579/112 471/754/252 456/744/243
f 450/747/246 465/755/253 464/751/249 449/745/244
f 443/748/247 458/756/254 457/753/251 442/746/245
f 451/749/248 466/757/255 465/755/253 450/747/246
f 444/735/235 459/758/256 458/756/254 443/748/247
f 452/737/237 467/759/257 466/760/255 451/761/248
f 445/762/234 460/763/258 459/764/256 444/765/235
f 453/736/236 468/766/259 467/759/257 452/737/237
f 446/767/238 461/768/260 460/763/258 445/762/234
f 454/740/239 469/769/261 468/766/259 453/736/236
f 447/770/240 462/771/262 461/768/260 446/767/238
f 455/742/241 470/772/263 469/769/261 454/740/239
f 448/773/242 463/774/250 462/771/262 447/770/240
f 456/744/243 471/754/252 470/772/263 455/742/241
f 468/766/259 483/775/264 482/776/265 467/759/257
f 461/768/260 476/777/266 475/778/267 460/763/258
f 469/769/261 484/779/268 483/775/264 468/766/259
f 462/771/262 477/780/269 476/777/266 461/768/260
f 470/772/263 485/781/270 484/779/268 469/769/261
f 463/774/250 478/782/271 477/780/269 462/771/262
f 471/754/252 486/783/272 485/781/270 470/772/263
f 464/784/249 479/785/273 478/782/271 463/774/250
f 457/753/251 472/786/274 314/578/111
f 321/579/112 486/783/272 471/754/252
f 465/787/253 480/788/275 479/785/273 464/784/249
f 458/756/254 473/789/276 472/786/274 457/753/251
f 466/790/255 481/791/277 480/788/275 465/787/253
f 459/758/256 474/792/278 473/789/276 458/756/254
f 467/759/257 482/776/265 481/793/277 466/760/255
f 460/763/258 475/778/267 474/794/278 459/764/256
f 472/786/274 487/795/279 314/578/111
f 321/579/112 501/796/280 486/783/272
f 480/788/275 495/797/281 494/798/282 479/785/273
f 473/789/276 488/799/283 487/795/279 472/786/274
f 481/791/277 496/800/284 495/797/281 480/788/275
f 474/792/278 489/801/285 488/799/283 473/789/276
f 482/776/265 497/802/286 496/803/284 481/793/277
f 475/778/267 490/804/287 489/805/285 474/794/278
f 483/775/264 498/806/288 497/802/286 482/776/265
f 476/777/266 491/807/289 490/804/287 475/778/267
f 484/779/268 499/808/290 498/806/288 483/775/264
f 477/780/269 492/809/291 491/807/289 476/777/266
f 485/781/270 500/810/292 499/808/290 484/779/268
f 478/782/271 493/811/293 492/809/291 477/780/269
f 486/783/272 501/796/280 500/810/292 485/781/270
f 479/785/273 494/798/282 493/811/293 478/782/271
f 491/807/289 506/812/294 505/813/295 490/804/287
f 499/808/290 514/814/296 513/815/297 498/806/288
f 492/809/291 507/816/298 506/812/294 491/807/289
f 500/810/292 515/817/299 514/814/296 499/808/290
f 493/811/293 508/818/300 507/816/298 492/809/291
f 501/796/280 516/819/301 515/817/299 500/810/292
f 494/798/282 509/820/302 508/818/300 493/811/293
f 487/795/279 502/821/303 314/578/111
f 321/579/112 516/819/301 501/796/280
f 495/797/281 510/822/304 509/820/302 494/798/282
f 488/799/283 503/823/305 502/821/303 487/795/279
f 496/800/284 511/824/306 510/822/304 495/797/281
f 489/801/285 504/825/307 503/823/305 488/799/283
f 497/802/286 512/826/308 511/827/306 496/803/284
f 490/804/287 505/813/295 504/828/307 489/805/285
f 498/806/288 513/815/297 512/826/308 497/802/286
f 510/822/304 525/829/309 524/830/310 509/820/302
f 503/823/305 518/831/311 517/832/312 502/821/303
f 511/824/306 526/833/313 525/829/309 510/822/304
f 504/828/307 519/834/314 518/835/311 503/836/305
f 512/837/308 527/838/315 526/833/313 511/824/306
f 505/813/295 520/839/316 519/834/314 504/828/307
f 513/815/297 528/840/317 527/841/315 512/826/308
f 506/812/294 521/842/318 520/839/316 505/813/295
f 514/814/296 529/843/319 528/840/317 513/815/297
f 507/816/298 522/844/320 521/842/318 506/812/294
f 515/817/299 530/845/321 529/843/319 514/814/296
f 508/818/300 523/846/322 522/844/320 507/816/298
f 516/819/301 531/847/323 530/845/321 515/817/299
f 509/820/302 524/830/310 523/846/322 508/818/300
f 502/821/303 517/832/312 314/578/111
f 321/579/112 531/847/323 516/819/301
f 529/843/319 544/848/324 543/849/325 528/840/317
f 522/844/320 537/850/326 536/851/327 521/842/318
f 530/845/321 545/852/328 544/848/324 529/843/319
f 523/846/322 538/853/329 537/850/326 522/844/320
f 531/847/323 546/854/330 545/852/328 530/845/321
f 524/830/310 539/855/331 538/853/329 523/846/322
f 517/832/312 532/856/332 314/578/111
f 321/579/112 546/854/330 531/847/323
f 525/829/309 540/857/333 539/855/331 524/830/310
f 518/831/311 533/858/334 532/856/332 517/832/312
f 526/833/313 541/859/335 540/857/333 525/829/309
f 519/860/314 534/861/336 533/858/334 518/831/311
f 527/838/315 542/862/337 541/859/335 526/833/313
f 520/839/316 535/863/338 534/864/336 519/834/314
f 528/840/317 543/849/325 542/865/337 527/841/315
f 521/842/318 536/851/327 535/863/338 520/839/316
f 541/859/335 556/866/339 555/867/340 540/857/333
f 534/861/336 549/868/341 548/869/342 533/858/334
f 542/865/337 557/870/343 556/871/339 541/872/335
f 535/863/338 550/873/344 549/874/341 534/864/336
f 543/849/325 558/875/345 557/870/343 542/865/337
f 536/851/327 551/876/346 550/873/344 535/863/338
f 544/848/324 559/877/347 558/875/345 543/849/325
f 537/850/326 552/878/348 551/876/346 536/851/327
f 545/852/328 560/879/349 559/877/347 544/848/324
f 538/853/329 553/880/350 552/878/348 537/850/326
f 546/854/330 561/881/351 560/879/349 545/852/328
f 539/855/331 554/882/352 553/880/350 538/853/329
f 532/856/332 547/883/353 314/578/111
f 321/579/112 561/881/351 546/854/330
f 540/857/333 555/867/340 554/882/352 539/855/331
f 533/858/334 548/869/342 547/883/353 532/856/332
f 560/879/349 575/884/354 574/885/355 559/877/347
f 553/880/350 568/886/356 567/887/357 552/878/348
f 561/881/351 576/888/358 575/884/354 560/879/349
f 554/882/352 569/889/359 568/886/356 553/880/350
f 547/883/353 562/890/360 314/578/111
f 321/579/112 576/888/358 561/881/351
f 555/867/340 570/891/361 569/889/359 554/882/352
f 548/869/342 563/892/362 562/890/360 547/883/353
f 556/866/339 571/893/363 570/891/361 555/867/340
f 549/868/341 564/894/364 563/892/362 548/869/342
f 557/870/343 572/895/365 571/896/363 556/871/339
f 550/873/344 565/897/366 564/898/364 549/874/341
f 558/875/345 573/899/367 572/895/365 557/870/343
f 551/876/346 566/900/368 565/897/366 550/873/344
f 559/877/347 574/885/355 573/899/367 558/875/345
f 552/878/348 567/887/357 566/900/368 551/876/346
f 564/894/364 579/901/369 578/902/370 563/892/362
f 572/903/365 587/904/371 586/905/372 571/906/363
f 565/897/366 580/907/373 579/908/369 564/898/364
f 573/899/367 588/909/374 587/910/371 572/895/365
f 566/900/368 581/911/375 580/907/373 565/897/366
f 574/885/355 589/912/376 588/909/374 573/899/367
f 567/887/357 582/913/377 581/911/375 566/900/368
f 575/884/354 590/914/378 589/912/376 574/885/355
f 568/886/356 583/915/379 582/913/377 567/887/357
f 576/888/358 591/916/380 590/914/378 575/884/354
f 569/889/359 584/917/381 583/915/379 568/886/356
f 562/890/360 577/918/382 314/578/111
f 321/579/112 591/916/380 576/888/358
f 570/919/361 585/920/383 584/921/381 569/922/359
f 563/892/362 578/902/370 577/918/382 562/890/360
f 571/906/363 586/905/372 585/920/383 570/919/361
f 583/923/379 598/924/384 597/925/385 582/926/377
f 591/916/380 606/927/386 605/928/387 590/914/378
f 584/921/381 599/929/388 598/924/384 583/923/379
f 577/918/382 592/930/389 314/578/111
f 321/579/112 606/927/386 591/916/380
f 585/920/383 600/931/390 599/929/388 584/921/381
f 578/902/370 593/932/391 592/930/389 577/918/382
f 586/905/372 601/933/392 600/931/390 585/920/383
f 579/901/369 594/934/393 593/932/391 578/902/370
f 587/904/371 602/935/394 601/933/392 586/905/372
f 580/936/373 595/937/395 594/934/393 579/901/369
f 588/938/374 603/939/396 602/935/394 587/904/371
f 581/911/375 596/940/397 595/941/395 580/907/373
f 589/912/376 604/942/398 603/943/396 588/909/374
f 582/926/377 597/925/385 596/944/397 581/945/375
f 590/914/378 605/928/387 604/942/398 589/912/376
f 602/935/394 617/946/399 616/947/400 601/933/392
f 595/937/395 610/948/401 609/949/402 594/934/393
f 603/939/396 618/950/403 617/946/399 602/935/394
f 596/944/397 611/951/404 610/952/401 595/953/395
f 604/942/398 619/954/405 618/955/403 603/943/396
f 597/925/385 612/956/406 611/951/404 596/944/397
f 605/928/387 620/957/407 619/954/405 604/942/398
f 598/924/384 613/958/408 612/956/406 597/925/385
f 606/927/386 621/959/409 620/957/407 605/928/387
f 599/929/388 614/960/410 613/958/408 598/924/384
f 592/930/389 607/961/411 314/578/111
f 321/579/112 621/959/409 606/927/386
f 600/931/390 615/962/412 614/960/410 599/929/388
f 593/932/391 608/963/413 607/961/411 592/930/389
f 601/933/392 616/947/400 615/962/412 600/931/390
f 594/934/393 609/949/402 608/963/413 593/932/391
f 621/959/409 636/964/414 635/965/415 620/957/407
f 614/960/410 629/966/416 628/967/417 613/958/408
f 607/961/411 622/968/418 314/578/111
f 321/579/112 636/964/414 621/959/409
f 615/962/412 630/969/419 629/966/416 614/960/410
f 608/963/413 623/970/420 622/968/418 607/961/411
f 616/947/400 631/971/421 630/969/419 615/962/412
f 609/949/402 624/972/422 623/970/420 608/963/413
f 617/946/399 632/973/423 631/971/421 616/947/400
f 610/948/401 625/974/424 624/972/422 609/949/402
f 618/950/403 633/975/425 632/973/423 617/946/399
f 611/951/404 626/976/426 625/977/424 610/952/401
f 619/954/405 634/978/427 633/979/425 618/955/403
f 612/956/406 627/980/428 626/976/426 611/951/404
f 620/957/407 635/965/415 634/978/427 619/954/405
f 613/958/408 628/967/417 627/980/428 612/956/406
f 625/974/424 640/981/429 639/982/430 624/972/422
f 633/975/425 648/983/431 647/984/432 632/973/423
f 626/976/426 641/985/433 640/986/429 625/977/424
f 634/987/427 649/988/434 648/983/431 633/975/425
f 627/980/428 642/989/435 641/985/433 626/976/426
f 635/965/415 650/990/436 649/991/434 634/978/427
f 628/967/417 643/992/437 642/989/435 627/980/428
f 636/964/414 651/993/438 650/990/436 635/965/415
f 629/966/416 644/994/439 643/992/437 628/967/417
f 622/968/418 637/995/440 314/578/111
f 321/579/112 651/993/438 636/964/414
f 630/969/419 645/996/441 644/994/439 629/966/416
f 623/970/420 638/997/442 637/995/440 622/968/418
f 631/971/421 646/998/443 645/996/441 630/969/419
f 624/972/422 639/982/430 638/997/442 623/970/420
f 632/973/423 647/984/432 646/998/443 631/971/421
f 644/994/439 659/999/444 658/1000/445 643/992/437
f 637/995/440 652/1001/446 314/578/111
f 321/579/112 666/1002/447 651/993/438
f 645/996/441 660/1003/448 659/999/444 644/994/439
f 638/997/442 653/1004/449 652/1001/446 637/995/440
f 646/998/443 661/1005/450 660/1003/448 645/996/441
f 639/982/430 654/1006/451 653/1004/449 638/997/442
f 647/984/432 662/1007/452 661/1005/450 646/998/443
f 640/981/429 655/1008/453 654/1006/451 639/982/430
f 648/983/431 663/1009/454 662/1007/452 647/984/432
f 641/985/433 656/1010/455 655/1011/453 640/986/429
f 649/988/434 664/1012/456 663/1009/454 648/983/431
f 642/989/435 657/1013/457 656/1010/455 641/985/433
f 650/990/436 665/1014/458 664/1015/456 649/991/434
f 643/992/437 658/1000/445 657/1013/457 642/989/435
f 651/993/438 666/1002/447 665/1014/458 650/990/436
f 663/1009/454 678/1016/459 677/1017/460 662/1007/452
f 656/1018/455 671/1019/461 670/1020/462 655/1008/453
f 664/1012/456 679/1021/463 678/1016/459 663/1009/454
f 657/1013/457 672/1022/464 671/1023/461 656/1010/455
f 665/1014/458 680/1024/465 679/1025/463 664/1015/456
f 658/1000/445 673/1026/466 672/1022/464 657/1013/457
f 666/1002/447 681/1027/467 680/1024/465 665/1014/458
f 659/999/444 674/1028/468 673/1026/466 658/1000/445
f 652/1001/446 667/1029/469 314/578/111
f 321/579/112 681/1027/467 666/1002/447
f 660/1003/448 675/1030/470 674/1028/468 659/999/444
f 653/1004/449 668/1031/471 667/1029/469 652/1001/446
f 661/1005/450 676/1032/472 675/1030/470 660/1003/448
f 654/1006/451 669/1033/473 668/1031/471 653/1004/449
f 662/1007/452 677/1017/460 676/1032/472 661/1005/450
f 655/1008/453 670/1020/462 669/1033/473 654/1006/451
f 321/579/112 696/1034/474 681/1027/467
f 675/1030/470 690/1035/475 689/1036/476 674/1028/468
f 668/1031/471 683/1037/477 682/1038/478 667/1029/469
f 676/1032/472 691/1039/479 690/1035/475 675/1030/470
f 669/1033/473 684/1040/480 683/1037/477 668/1031/471
f 677/1017/460 692/1041/481 691/1039/479 676/1032/472
f 670/1020/462 685/1042/482 684/1040/480 669/1033/473
f 678/1016/459 693/1043/483 692/1041/481 677/1017/460
f 671/1019/461 686/1044/484 685/1042/482 670/1020/462
f 679/1025/463 694/1045/485 693/1046/483 678/1047/459
f 672/1022/464 687/1048/486 686/1049/484 671/1023/461
f 680/1024/465 695/1050/487 694/1045/485 679/1025/463
f 673/1026/466 688/1051/488 687/1048/486 672/1022/464
f 681/1027/467 696/1034/474 695/1050/487 680/1024/465
f 674/1028/468 689/1036/476 688/1051/488 673/1026/466
f 667/1029/469 682/1038/478 314/578/111
f 694/1052/485 709/1053/489 708/1054/490 693/1055/483
f 687/1056/486 702/1057/491 701/1058/492 686/1044/484
f 695/1050/487 710/1059/493 709/1060/489 694/1045/485
f 688/1051/488 703/1061/494 702/1062/491 687/1048/486
f 696/1034/474 711/1063/495 710/1059/493 695/1050/487
f 689/1036/476 704/1064/496 703/1061/494 688/1051/488
f 682/1038/478 697/1065/497 314/578/111
f 321/579/112 711/1063/495 696/1034/474
f 690/1035/475 705/1066/498 704/1064/496 689/1036/476
f 683/1037/477 698/1067/499 697/1065/497 682/1038/478
f 691/1068/479 706/1069/500 705/1070/498 690/1071/475
f 684/1040/480 699/1072/501 698/1067/499 683/1037/477
f 692/1073/481 707/1074/502 706/1069/500 691/1068/479
f 685/1042/482 700/1075/503 699/1072/501 684/1040/480
f 693/1055/483 708/1054/490 707/1074/502 692/1073/481
f 686/1044/484 701/1058/492 700/1075/503 685/1042/482
f 698/1067/499 713/1076/504 712/1077/505 697/1065/497
f 706/1069/500 721/1078/506 720/1079/507 705/1070/498
f 699/1072/501 714/1080/508 713/1076/504 698/1067/499
f 707/1074/502 722/1081/509 721/1078/506 706/1069/500
f 700/1075/503 715/1082/510 714/1080/508 699/1072/501
f 708/1054/490 723/1083/511 722/1081/509 707/1074/502
f 701/1058/492 716/1084/512 715/1082/510 700/1075/503
f 709/1053/489 724/1085/513 723/1083/511 708/1054/490
f 702/1057/491 717/1086/514 716/1084/512 701/1058/492
f 710/1059/493 725/1087/515 724/1088/513 709/1060/489
f 703/1089/494 718/1090/516 717/1091/514 702/1092/491
f 711/1063/495 726/1093/517 725/1087/515 710/1059/493
f 704/1094/496 719/1095/518 718/1090/516 703/1089/494
f 697/1065/497 712/1077/505 314/578/111
f 321/579/112 726/1093/517 711/1063/495
f 705/1070/498 720/1079/507 719/1095/518 704/1094/496
f 717/1086/514 732/1096/519 731/1097/520 716/1084/512
f 725/1087/515 740/1098/521 739/1099/522 724/1088/513
f 718/1090/516 733/1100/523 732/1101/519 717/1091/514
f 726/1093/517 741/1102/524 740/1098/521 725/1087/515
f 719/1095/518 734/1103/525 733/1100/523 718/1090/516
f 712/1077/505 727/1104/526 314/578/111
f 321/579/112 741/1102/524 726/1093/517
f 720/1079/507 735/1105/527 734/1103/525 719/1095/518
f 713/1076/504 728/1106/528 727/1104/526 712/1077/505
f 721/1078/506 736/1107/529 735/1105/527 720/1079/507
f 714/1080/508 729/1108/530 728/1106/528 713/1076/504
f 722/1081/509 737/1109/531 736/1107/529 721/1078/506
f 715/1082/510 730/1110/532 729/1108/530 714/1080/508
f 723/1083/511 738/1111/533 737/1109/531 722/1081/509
f 716/1084/512 731/1097/520 730/1110/532 715/1082/510
f 724/1085/513 739/1112/522 738/1111/533 723/1083/511
f 736/1107/529 751/1113/534 750/1114/535 735/1105/527
f 729/1108/530 744/1115/536 743/1116/537 728/1106/528
f 737/1109/531 752/1117/538 751/1113/534 736/1107/529
f 730/1110/532 745/1118/539 744/1115/536 729/1108/530
f 738/1111/533 753/1119/540 752/1117/538 737/1109/531
f 731/1097/520 746/1120/541 745/1118/539 730/1110/532
f 739/1112/522 754/1121/542 753/1119/540 738/1111/533
f 732/1096/519 747/1122/543 746/1120/541 731/1097/520
f 740/1098/521 755/1123/544 754/1124/542 739/1099/522
f 733/1100/523 748/1125/545 747/1126/543 732/1101/519
f 741/1102/524 756/1127/546 755/1123/544 740/1098/521
f 734/1103/525 749/1128/547 748/1125/545 733/1100/523
f 727/1104/526 742/1129/548 314/578/111
f 321/579/112 756/1127/546 741/1102/524
f 735/1105/527 750/1114/535 749/1128/547 734/1103/525
f 728/1106/528 743/1116/537 742/1129/548 727/1104/526
f 755/1130/544 770/1131/549 769/1132/550 754/1121/542
f 748/1125/545 763/1133/551 762/1134/552 747/1126/543
f 756/1127/546 771/1135/553 770/1136/549 755/1123/544
f 749/1128/547 764/1137/554 763/1133/551 748/1125/545
f 742/1129/548 757/1138/555 314/578/111
f 321/579/112 771/1135/553 756/1127/546
f 750/1114/535 765/1139/556 764/1137/554 749/1128/547
f 743/1116/537 758/1140/557 757/1138/555 742/1129/548
f 751/1113/534 766/1141/558 765/1139/556 750/1114/535
f 744/1115/536 759/1142/559 758/1140/557 743/1116/537
f 752/1117/538 767/1143/560 766/1141/558 751/1113/534
f 745/1118/539 760/1144/561 759/1142/559 744/1115/536
f 753/1119/540 768/1145/562 767/1143/560 752/1117/538
f 746/1120/541 761/1146/563 760/1144/561 745/1118/539
f 754/1121/542 769/1132/550 768/1145/562 753/1119/540
f 747/1126/543 762/1134/552 761/1147/563 746/1148/541
f 759/1142/559 774/1149/564 773/1150/565 758/1140/557
f 767/1143/560 782/1151/566 781/1152/567 766/1141/558
f 760/1144/561 775/1153/568 774/1149/564 759/1142/559
f 768/1145/562 783/1154/569 782/1151/566 767/1143/560
f 761/1146/563 776/1155/570 775/1153/568 760/1144/561
f 769/1132/550 784/1156/571 783/1154/569 768/1145/562
f 762/1134/552 777/1157/572 776/1158/570 761/1147/563
f 770/1136/549 785/1159/573 784/1160/571 769/1161/550
f 763/1133/551 778/1162/574 777/1157/572 762/1134/552
f 771/1135/553 786/1163/575 785/1159/573 770/1136/549
f 764/1137/554 779/1164/576 778/1162/574 763/1133/551
f 757/1138/555 772/1165/577 314/578/111
f 321/579/112 786/1163/575 771/1135/553
f 765/1139/556 780/1166/578 779/1164/576 764/1137/554
f 758/1140/557 773/1150/565 772/1165/577 757/1138/555
f 766/1141/558 781/1152/567 780/1166/578 765/1139/556
f 778/1162/574 317/568/101 790/571/104 777/1157/572
f 786/1163/575 795/572/105 794/564/97 785/1159/573
f 779/1164/576 318/574/107 317/568/101 778/1162/574
f 772/1165/577 787/576/109 314/578/111
f 321/579/112 795/572/105 786/1163/575
f 780/1166/578 319/580/113 318/574/107 779/1164/576
f 773/1150/565 788/582/115 787/576/109 772/1165/577
f 781/1152/567 791/584/117 319/580/113 780/1166/578
f 774/1149/564 315/586/119 788/582/115 773/1150/565
f 782/1151/566 320/588/121 791/584/117 781/1152/567
f 775/1153/568 789/590/123 315/586/119 774/1149/564
f 783/1154/569 792/592/125 320/588/121 782/1151/566
f 776/1155/570 316/594/127 789/590/123 775/1153/568
f 784/1156/571 793/596/100 792/592/125 783/1154/569
f 777/1167/572 790/598/104 316/594/127 776/1155/570
f 785/1159/573 794/564/97 793/567/100 784/1160/571
