# Blender 4.4.3
# www.blender.org
mtllib round_cube.mtl
o Cube
v 0.800000 0.800000 -1.000000
v 0.800000 1.000000 -0.800000
v 1.000000 0.800000 -0.800000
v 0.800000 0.861815 -0.990207
v 0.800000 0.917537 -0.961818
v 0.861815 0.800000 -0.990207
v 0.863454 0.863811 -0.978611
v 0.861385 0.914829 -0.951810
v 0.917537 0.800000 -0.961818
v 0.914931 0.861544 -0.951668
v 0.905824 0.905824 -0.932675
v 0.861815 0.990207 -0.800000
v 0.917537 0.961818 -0.800000
v 0.800000 0.990207 -0.861815
v 0.863811 0.978611 -0.863454
v 0.914829 0.951810 -0.861385
v 0.800000 0.961818 -0.917537
v 0.861544 0.951668 -0.914931
v 0.905824 0.932675 -0.905824
v 0.990207 0.800000 -0.861815
v 0.961818 0.800000 -0.917537
v 0.990207 0.861815 -0.800000
v 0.978611 0.863454 -0.863811
v 0.951810 0.861385 -0.914829
v 0.961818 0.917537 -0.800000
v 0.951668 0.914931 -0.861544
v 0.932675 0.905824 -0.905824
v 0.800000 -1.000000 -0.800000
v 0.800000 -0.800000 -1.000000
v 1.000000 -0.800000 -0.800000
v 0.800000 -0.990207 -0.861815
v 0.800000 -0.961818 -0.917537
v 0.861815 -0.990207 -0.800000
v 0.863454 -0.978611 -0.863811
v 0.861385 -0.951810 -0.914829
v 0.917537 -0.961818 -0.800000
v 0.914931 -0.951668 -0.861544
v 0.905824 -0.932675 -0.905824
v 0.861815 -0.800000 -0.990207
v 0.917537 -0.800000 -0.961818
v 0.800000 -0.861815 -0.990207
v 0.863811 -0.863454 -0.978611
v 0.914829 -0.861385 -0.951810
v 0.800000 -0.917537 -0.961818
v 0.861544 -0.914931 -0.951668
v 0.905824 -0.905824 -0.932675
v 0.990207 -0.861815 -0.800000
v 0.961818 -0.917537 -0.800000
v 0.990207 -0.800000 -0.861815
v 0.978611 -0.863811 -0.863454
v 0.951810 -0.914829 -0.861385
v 0.961818 -0.800000 -0.917537
v 0.951668 -0.861544 -0.914931
v 0.932675 -0.905824 -0.905824
v 1.000000 0.800000 0.800000
v 0.800000 1.000000 0.800000
v 0.800000 0.800000 1.000000
v 0.990207 0.861815 0.800000
v 0.961818 0.917537 0.800000
v 0.990207 0.800000 0.861815
v 0.978611 0.863811 0.863454
v 0.951810 0.914829 0.861385
v 0.961818 0.800000 0.917537
v 0.951668 0.861544 0.914931
v 0.932675 0.905824 0.905824
v 0.800000 0.990207 0.861815
v 0.800000 0.961818 0.917537
v 0.861815 0.990207 0.800000
v 0.863454 0.978611 0.863811
v 0.861385 0.951810 0.914829
v 0.917537 0.961818 0.800000
v 0.914931 0.951668 0.861544
v 0.905824 0.932675 0.905824
v 0.861815 0.800000 0.990207
v 0.917537 0.800000 0.961818
v 0.800000 0.861815 0.990207
v 0.863811 0.863454 0.978611
v 0.914829 0.861385 0.951810
v 0.800000 0.917537 0.961818
v 0.861544 0.914931 0.951668
v 0.905824 0.905824 0.932675
v 1.000000 -0.800000 0.800000
v 0.800000 -0.800000 1.000000
v 0.800000 -1.000000 0.800000
v 0.990207 -0.800000 0.861815
v 0.961818 -0.800000 0.917537
v 0.990207 -0.861815 0.800000
v 0.978611 -0.863454 0.863811
v 0.951810 -0.861385 0.914829
v 0.961818 -0.917537 0.800000
v 0.951668 -0.914931 0.861544
v 0.932675 -0.905824 0.905824
v 0.800000 -0.861815 0.990207
v 0.800000 -0.917537 0.961818
v 0.861815 -0.800000 0.990207
v 0.863454 -0.863811 0.978611
v 0.861385 -0.914829 0.951810
v 0.917537 -0.800000 0.961818
v 0.914931 -0.861544 0.951668
v 0.905824 -0.905824 0.932675
v 0.861815 -0.990207 0.800000
v 0.917537 -0.961818 0.800000
v 0.800000 -0.990207 0.861815
v 0.863811 -0.978611 0.863454
v 0.914829 -0.951810 0.861385
v 0.800000 -0.961818 0.917537
v 0.861544 -0.951668 0.914931
v 0.905824 -0.932675 0.905824
v -0.800000 0.800000 -1.000000
v -1.000000 0.800000 -0.800000
v -0.800000 1.000000 -0.800000
v -0.861815 0.800000 -0.990207
v -0.917537 0.800000 -0.961818
v -0.800000 0.861815 -0.990207
v -0.863811 0.863454 -0.978611
v -0.914829 0.861385 -0.951810
v -0.800000 0.917537 -0.961818
v -0.861544 0.914931 -0.951668
v -0.905824 0.905824 -0.932675
v -0.990207 0.861815 -0.800000
v -0.961818 0.917537 -0.800000
v -0.990207 0.800000 -0.861815
v -0.978611 0.863811 -0.863454
v -0.951810 0.914829 -0.861385
v -0.961818 0.800000 -0.917537
v -0.951668 0.861544 -0.914931
v -0.932675 0.905824 -0.905824
v -0.800000 0.990207 -0.861815
v -0.800000 0.961818 -0.917537
v -0.861815 0.990207 -0.800000
v -0.863454 0.978611 -0.863811
v -0.861385 0.951810 -0.914829
v -0.917537 0.961818 -0.800000
v -0.914931 0.951668 -0.861544
v -0.905824 0.932675 -0.905824
v -1.000000 -0.800000 -0.800000
v -0.800000 -0.800000 -1.000000
v -0.800000 -1.000000 -0.800000
v -0.990207 -0.800000 -0.861815
v -0.961818 -0.800000 -0.917537
v -0.990207 -0.861815 -0.800000
v -0.978611 -0.863454 -0.863811
v -0.951810 -0.861385 -0.914829
v -0.961818 -0.917537 -0.800000
v -0.951668 -0.914931 -0.861544
v -0.932675 -0.905824 -0.905824
v -0.800000 -0.861815 -0.990207
v -0.800000 -0.917537 -0.961818
v -0.861815 -0.800000 -0.990207
v -0.863454 -0.863811 -0.978611
v -0.861385 -0.914829 -0.951810
v -0.917537 -0.800000 -0.961818
v -0.914931 -0.861544 -0.951668
v -0.905824 -0.905824 -0.932675
v -0.861815 -0.990207 -0.800000
v -0.917537 -0.961818 -0.800000
v -0.800000 -0.990207 -0.861815
v -0.863811 -0.978611 -0.863454
v -0.914829 -0.951810 -0.861385
v -0.800000 -0.961818 -0.917537
v -0.861544 -0.951668 -0.914931
v -0.905824 -0.932675 -0.905824
v -1.000000 0.800000 0.800000
v -0.800000 0.800000 1.000000
v -0.800000 1.000000 0.800000
v -0.990207 0.800000 0.861815
v -0.961818 0.800000 0.917537
v -0.990207 0.861815 0.800000
v -0.978611 0.863454 0.863811
v -0.951810 0.861385 0.914829
v -0.961818 0.917537 0.800000
v -0.951668 0.914931 0.861544
v -0.932675 0.905824 0.905824
v -0.800000 0.861815 0.990207
v -0.800000 0.917537 0.961818
v -0.861815 0.800000 0.990207
v -0.863454 0.863811 0.978611
v -0.861385 0.914829 0.951810
v -0.917537 0.800000 0.961818
v -0.914931 0.861544 0.951668
v -0.905824 0.905824 0.932675
v -0.861815 0.990207 0.800000
v -0.917537 0.961818 0.800000
v -0.800000 0.990207 0.861815
v -0.863811 0.978611 0.863454
v -0.914829 0.951810 0.861385
v -0.800000 0.961818 0.917537
v -0.861544 0.951668 0.914931
v -0.905824 0.932675 0.905824
v -0.800000 -1.000000 0.800000
v -0.800000 -0.800000 1.000000
v -1.000000 -0.800000 0.800000
v -0.800000 -0.990207 0.861815
v -0.800000 -0.961818 0.917537
v -0.861815 -0.990207 0.800000
v -0.863454 -0.978611 0.863811
v -0.861385 -0.951810 0.914829
v -0.917537 -0.961818 0.800000
v -0.914931 -0.951668 0.861544
v -0.905824 -0.932675 0.905824
v -0.861815 -0.800000 0.990207
v -0.917537 -0.800000 0.961818
v -0.800000 -0.861815 0.990207
v -0.863811 -0.863454 0.978611
v -0.914829 -0.861385 0.951810
v -0.800000 -0.917537 0.961818
v -0.861544 -0.914931 0.951668
v -0.905824 -0.905824 0.932675
v -0.990207 -0.861815 0.800000
v -0.961818 -0.917537 0.800000
v -0.990207 -0.800000 0.861815
v -0.978611 -0.863811 0.863454
v -0.951810 -0.914829 0.861385
v -0.961818 -0.800000 0.917537
v -0.951668 -0.861544 0.914931
v -0.932675 -0.905824 0.905824
vn -0.0000 -1.0000 -0.0000
vn -1.0000 -0.0000 -0.0000
vn -0.0000 -0.0000 1.0000
vn -0.0000 1.0000 -0.0000
vn 1.0000 -0.0000 -0.0000
vn 0.1635 0.1635 -0.9729
vn 0.1543 0.4562 -0.8764
vn 0.1450 0.6997 -0.6996
vn 0.4557 0.1556 -0.8764
vn 0.4313 0.4314 -0.7924
vn 0.4090 0.6449 -0.6456
vn 0.1635 0.9729 -0.1635
vn 0.4562 0.8764 -0.1543
vn 0.6997 0.6996 -0.1450
vn 0.1556 0.8764 -0.4557
vn 0.4314 0.7924 -0.4313
vn 0.6449 0.6456 -0.4090
vn 0.9729 0.1635 -0.1635
vn 0.8764 0.1543 -0.4562
vn 0.6996 0.1450 -0.6997
vn 0.8764 0.4557 -0.1556
vn 0.7924 0.4313 -0.4314
vn 0.6456 0.4090 -0.6449
vn 0.5773 0.5774 -0.5774
vn 0.1635 -0.9729 -0.1635
vn 0.1543 -0.8764 -0.4562
vn 0.1450 -0.6996 -0.6997
vn 0.4557 -0.8764 -0.1556
vn 0.4313 -0.7924 -0.4314
vn 0.4090 -0.6456 -0.6449
vn 0.1635 -0.1635 -0.9729
vn 0.4562 -0.1543 -0.8764
vn 0.6997 -0.1450 -0.6996
vn 0.1556 -0.4557 -0.8764
vn 0.4314 -0.4313 -0.7924
vn 0.6449 -0.4090 -0.6456
vn 0.9729 -0.1635 -0.1635
vn 0.8764 -0.4562 -0.1543
vn 0.6996 -0.6997 -0.1450
vn 0.8764 -0.1556 -0.4557
vn 0.7924 -0.4314 -0.4313
vn 0.6456 -0.6449 -0.4090
vn 0.5773 -0.5773 -0.5774
vn 0.9729 0.1635 0.1635
vn 0.8764 0.4562 0.1543
vn 0.6996 0.6997 0.1450
vn 0.8764 0.1556 0.4557
vn 0.7924 0.4314 0.4313
vn 0.6456 0.6449 0.4090
vn 0.1635 0.9729 0.1635
vn 0.1543 0.8764 0.4562
vn 0.1450 0.6996 0.6997
vn 0.4557 0.8764 0.1556
vn 0.4313 0.7924 0.4314
vn 0.4090 0.6456 0.6449
vn 0.1635 0.1635 0.9729
vn 0.4562 0.1543 0.8764
vn 0.6997 0.1450 0.6996
vn 0.1556 0.4557 0.8764
vn 0.4314 0.4313 0.7924
vn 0.6449 0.4090 0.6456
vn 0.5773 0.5774 0.5773
vn 0.9729 -0.1635 0.1635
vn 0.8764 -0.1543 0.4562
vn 0.6996 -0.1450 0.6997
vn 0.8764 -0.4557 0.1556
vn 0.7924 -0.4313 0.4314
vn 0.6456 -0.4090 0.6449
vn 0.1635 -0.1635 0.9729
vn 0.1543 -0.4562 0.8764
vn 0.1450 -0.6997 0.6996
vn 0.4557 -0.1556 0.8764
vn 0.4313 -0.4314 0.7924
vn 0.4090 -0.6449 0.6456
vn 0.1635 -0.9729 0.1635
vn 0.4562 -0.8764 0.1543
vn 0.6997 -0.6996 0.1450
vn 0.1556 -0.8764 0.4557
vn 0.4314 -0.7924 0.4313
vn 0.6449 -0.6456 0.4090
vn 0.5774 -0.5773 0.5774
vn -0.1635 0.1635 -0.9729
vn -0.4562 0.1543 -0.8764
vn -0.6997 0.1450 -0.6996
vn -0.1556 0.4557 -0.8764
vn -0.4314 0.4313 -0.7924
vn -0.6449 0.4090 -0.6456
vn -0.9729 0.1635 -0.1635
vn -0.8764 0.4562 -0.1543
vn -0.6996 0.6997 -0.1450
vn -0.8764 0.1556 -0.4557
vn -0.7924 0.4314 -0.4313
vn -0.6456 0.6449 -0.4090
vn -0.1635 0.9729 -0.1635
vn -0.1543 0.8764 -0.4562
vn -0.1450 0.6996 -0.6997
vn -0.4557 0.8764 -0.1556
vn -0.4313 0.7924 -0.4314
vn -0.4090 0.6456 -0.6449
vn -0.5774 0.5773 -0.5773
vn -0.9729 -0.1635 -0.1635
vn -0.8764 -0.1543 -0.4562
vn -0.6996 -0.1450 -0.6997
vn -0.8764 -0.4557 -0.1556
vn -0.7924 -0.4313 -0.4314
vn -0.6456 -0.4090 -0.6449
vn -0.1635 -0.1635 -0.9729
vn -0.1543 -0.4562 -0.8764
vn -0.1450 -0.6997 -0.6996
vn -0.4557 -0.1556 -0.8764
vn -0.4313 -0.4314 -0.7924
vn -0.4090 -0.6449 -0.6456
vn -0.1635 -0.9729 -0.1635
vn -0.4562 -0.8764 -0.1543
vn -0.6997 -0.6996 -0.1450
vn -0.1556 -0.8764 -0.4557
vn -0.4314 -0.7924 -0.4313
vn -0.6449 -0.6456 -0.4090
vn -0.5774 -0.5773 -0.5774
vn -0.9729 0.1635 0.1635
vn -0.8764 0.1543 0.4562
vn -0.6996 0.1450 0.6997
vn -0.8764 0.4557 0.1556
vn -0.7924 0.4313 0.4314
vn -0.6456 0.4090 0.6449
vn -0.1635 0.1635 0.9729
vn -0.1543 0.4562 0.8764
vn -0.1450 0.6997 0.6996
vn -0.4557 0.1556 0.8764
vn -0.4313 0.4314 0.7924
vn -0.4090 0.6449 0.6456
vn -0.1635 0.9729 0.1635
vn -0.4562 0.8764 0.1543
vn -0.6997 0.6996 0.1450
vn -0.1556 0.8764 0.4557
vn -0.4314 0.7924 0.4313
vn -0.6449 0.6456 0.4090
vn -0.5774 0.5773 0.5774
vn -0.1635 -0.9729 0.1635
vn -0.1543 -0.8764 0.4562
vn -0.1450 -0.6996 0.6997
vn -0.4557 -0.8764 0.1556
vn -0.4313 -0.7924 0.4314
vn -0.4090 -0.6456 0.6449
vn -0.1635 -0.1635 0.9729
vn -0.4562 -0.1543 0.8764
vn -0.6997 -0.1450 0.6996
vn -0.1556 -0.4557 0.8764
vn -0.4314 -0.4313 0.7924
vn -0.6449 -0.4090 0.6456
vn -0.9729 -0.1635 0.1635
vn -0.8764 -0.4562 0.1543
vn -0.6996 -0.6997 0.1450
vn -0.8764 -0.1556 0.4557
vn -0.7924 -0.4314 0.4313
vn -0.6456 -0.6449 0.4090
vn -0.5773 -0.5773 0.5774
vn -0.1565 -0.9877 -0.0000
vn -0.4540 -0.8910 -0.0000
vn -0.7071 -0.7071 -0.0000
vn -0.8910 -0.4540 -0.0000
vn -0.9877 -0.1565 -0.0000
vn -0.0000 -0.9877 -0.1565
vn -0.0000 -0.8910 -0.4540
vn -0.0000 -0.7071 -0.7071
vn -0.0000 -0.4540 -0.8910
vn -0.0000 -0.1565 -0.9877
vn 0.9877 -0.0000 -0.1565
vn 0.8910 -0.0000 -0.4540
vn 0.7071 -0.0000 -0.7071
vn 0.4540 -0.0000 -0.8910
vn 0.1565 -0.0000 -0.9877
vn -0.1565 -0.0000 0.9877
vn -0.4540 -0.0000 0.8910
vn -0.7071 -0.0000 0.7071
vn -0.8910 -0.0000 0.4540
vn -0.9877 -0.0000 0.1565
vn 0.1565 -0.0000 0.9877
vn 0.4540 -0.0000 0.8910
vn 0.7071 -0.0000 0.7071
vn 0.8910 -0.0000 0.4540
vn 0.9877 -0.0000 0.1565
vn -0.1565 -0.0000 -0.9877
vn -0.4540 -0.0000 -0.8910
vn -0.7071 -0.0000 -0.7071
vn -0.8910 -0.0000 -0.4540
vn -0.9877 -0.0000 -0.1565
vn -0.0000 0.9877 0.1565
vn -0.0000 0.8910 0.4540
vn -0.0000 0.7071 0.7071
vn -0.0000 0.4540 0.8910
vn -0.0000 0.1565 0.9877
vn 0.1565 0.9877 -0.0000
vn 0.4540 0.8910 -0.0000
vn 0.7071 0.7071 -0.0000
vn 0.8910 0.4540 -0.0000
vn 0.9877 0.1565 -0.0000
vn -0.0000 -0.9877 0.1565
vn -0.0000 -0.8910 0.4540
vn -0.0000 -0.7071 0.7071
vn -0.0000 -0.4540 0.8910
vn -0.0000 -0.1565 0.9877
vn -0.1565 0.9877 -0.0000
vn -0.4540 0.8910 -0.0000
vn -0.7071 0.7071 -0.0000
vn -0.8910 0.4540 -0.0000
vn -0.9877 0.1565 -0.0000
vn -0.0000 0.9877 -0.1565
vn -0.0000 0.8910 -0.4540
vn -0.0000 0.7071 -0.7071
vn -0.0000 0.4540 -0.8910
vn -0.0000 0.1565 -0.9877
vn 0.1565 -0.9877 -0.0000
vn 0.4540 -0.8910 -0.0000
vn 0.7071 -0.7071 -0.0000
vn 0.8910 -0.4540 -0.0000
vn 0.9877 -0.1565 -0.0000
vn -0.0000 -0.0000 -1.0000
vt 0.310587 0.028527
vt 0.310587 0.310587
vt 0.028526 0.310587
vt 0.028527 0.028527
vt 0.365917 0.030249
vt 0.647972 0.028526
vt 0.649695 0.310581
vt 0.367640 0.312304
vt 0.369184 0.651417
vt 0.369184 0.369356
vt 0.649190 0.369358
vt 0.649190 0.651419
vt 0.310587 0.367640
vt 0.310587 0.649701
vt 0.028527 0.649701
vt 0.028527 0.367640
vt 0.697219 0.310587
vt 0.697219 0.028526
vt 0.979280 0.028527
vt 0.979280 0.310587
vt 0.968712 0.369358
vt 0.968920 0.358461
vt 0.980271 0.358109
vt 0.979738 0.369358
vt 0.969523 0.348637
vt 0.980478 0.349115
vt 0.970464 0.340830
vt 0.981289 0.342620
vt 0.989852 0.358508
vt 0.990092 0.369358
vt 0.988661 0.350702
vt 0.989232 0.345968
vt 0.310587 0.356743
vt 0.321773 0.356391
vt 0.321485 0.367640
vt 0.310587 0.346920
vt 0.321409 0.347397
vt 0.697219 -0.000000
vt 0.697219 0.007806
vt 0.686369 0.008266
vt 0.686397 0.001764
vt 0.330848 0.356791
vt 0.331308 0.367640
vt 0.329243 0.348985
vt 0.321437 0.340903
vt 0.329243 0.344251
vt 0.686322 0.028527
vt 0.685970 0.017340
vt 0.697219 0.017629
vt 0.676498 0.028527
vt 0.676976 0.017705
vt 0.998782 0.369357
vt 0.997088 0.358536
vt 0.678563 0.009871
vt 0.993931 0.350702
vt 0.321485 0.310587
vt 0.321836 0.321773
vt 0.310587 0.321485
vt 0.331308 0.310587
vt 0.330830 0.321409
vt 0.970464 0.679944
vt 0.969523 0.672139
vt 0.980509 0.671679
vt 0.981264 0.678180
vt 0.321437 0.330848
vt 0.310587 0.331308
vt 0.329243 0.329243
vt 0.988661 0.670074
vt 0.989232 0.674807
vt 0.968712 0.651419
vt 0.979738 0.651419
vt 0.980333 0.662605
vt 0.968920 0.662316
vt 0.990092 0.651418
vt 0.989831 0.662240
vt 0.998782 0.651418
vt 0.997061 0.662267
vt 0.993931 0.670073
vt 0.697219 0.321485
vt 0.686033 0.321836
vt 0.686322 0.310587
vt 0.697219 0.331308
vt 0.686397 0.330830
vt 0.310587 0.339114
vt 0.321409 0.337350
vt 0.676958 0.321437
vt 0.676498 0.310587
vt 0.678563 0.329243
vt 0.686369 0.337325
vt 0.678563 0.333976
vt 0.979280 0.017629
vt 0.990466 0.017277
vt 0.990177 0.028527
vt 0.979280 0.007806
vt 0.990101 0.008284
vt 0.028527 0.339114
vt 0.028527 0.346920
vt 0.017677 0.347379
vt 0.017705 0.340878
vt 0.999541 0.017677
vt 1.000000 0.028527
vt 0.997935 0.009871
vt 0.990129 0.001789
vt 0.997935 0.005137
vt 0.017629 0.367640
vt 0.017277 0.356454
vt 0.028527 0.356743
vt 0.007806 0.367640
vt 0.008284 0.356819
vt 0.367432 0.340830
vt 0.368373 0.348636
vt 0.357387 0.349095
vt 0.356632 0.342595
vt 0.009871 0.348985
vt 0.349235 0.350701
vt 0.348664 0.345968
vt 0.358158 0.369356
vt 0.357563 0.358170
vt 0.368976 0.358459
vt 0.347804 0.369356
vt 0.348065 0.358535
vt 0.339114 0.369357
vt 0.340835 0.358507
vt 0.343965 0.350701
vt 0.990177 0.310587
vt 0.990529 0.321773
vt 0.979280 0.321485
vt 1.000000 0.310587
vt 0.999523 0.321409
vt 0.339114 0.651417
vt 0.347804 0.651417
vt 0.348044 0.662267
vt 0.340808 0.662239
vt 0.990129 0.330848
vt 0.979280 0.331308
vt 0.997935 0.329243
vt 0.349235 0.670073
vt 0.343965 0.670073
vt 0.368976 0.662314
vt 0.357625 0.662666
vt 0.358158 0.651417
vt 0.368373 0.672138
vt 0.357418 0.671660
vt 0.367432 0.679944
vt 0.356607 0.678155
vt 0.348664 0.674807
vt 0.028527 0.321485
vt 0.017340 0.321836
vt 0.017629 0.310587
vt 0.028527 0.331308
vt 0.017705 0.330830
vt 0.979280 0.339114
vt 0.990101 0.337350
vt 0.008266 0.321437
vt 0.007806 0.310587
vt 0.009871 0.329243
vt 0.017677 0.337325
vt 0.009871 0.333976
vt 0.688706 0.369356
vt 0.678097 0.369355
vt 0.677994 0.358169
vt 0.688914 0.358458
vt 0.668948 0.369355
vt 0.669635 0.358533
vt 0.649870 0.339107
vt 0.649822 0.331302
vt 0.660668 0.330776
vt 0.660680 0.337277
vt 0.678963 0.349094
vt 0.689517 0.348635
vt 0.671617 0.350699
vt 0.668464 0.329123
vt 0.668493 0.333856
vt 0.660592 0.310515
vt 0.661013 0.321699
vt 0.649762 0.321479
vt 0.670415 0.310455
vt 0.670004 0.321279
vt 0.310587 0.678228
vt 0.310587 0.670422
vt 0.321437 0.669962
vt 0.321409 0.676463
vt 0.676498 0.321267
vt 0.673198 0.329094
vt 0.321485 0.649701
vt 0.321836 0.660887
vt 0.310587 0.660598
vt 0.331308 0.649701
vt 0.330830 0.660523
vt 0.339114 0.649701
vt 0.337325 0.660551
vt 0.329243 0.668357
vt 0.333976 0.668357
vt 0.329243 0.673090
vt 0.367706 0.323201
vt 0.356523 0.323622
vt 0.356743 0.312371
vt 0.367766 0.333024
vt 0.356942 0.332613
vt 0.367814 0.340830
vt 0.356954 0.339107
vt 0.347445 0.323277
vt 0.346920 0.312431
vt 0.349099 0.331073
vt 0.349128 0.335807
vt 0.688706 0.651416
vt 0.688914 0.662313
vt 0.678056 0.662665
vt 0.678097 0.651416
vt 0.689517 0.672136
vt 0.678987 0.671659
vt 0.339114 0.028527
vt 0.331308 0.028527
vt 0.330848 0.017677
vt 0.337350 0.017705
vt 0.669620 0.662265
vt 0.668948 0.651416
vt 0.671617 0.670071
vt 0.329243 0.009871
vt 0.333976 0.009871
vt 0.310587 0.017629
vt 0.321773 0.017277
vt 0.321485 0.028527
vt 0.310587 0.007806
vt 0.321409 0.008284
vt 0.339114 0.312479
vt 0.340944 0.323289
vt 0.321437 0.001789
vt 0.329243 0.005138
vt 0.647906 0.017629
vt 0.659090 0.017209
vt 0.658869 0.028459
vt 0.647846 0.007806
vt 0.658670 0.008217
vt 0.647798 -0.000000
vt 0.658658 0.001723
vt 0.668167 0.017553
vt 0.668692 0.028399
vt 0.666514 0.009757
vt 0.666485 0.005023
vt 0.648982 0.358461
vt 0.659840 0.358110
vt 0.659799 0.369358
vt 0.648379 0.348638
vt 0.658909 0.349116
vt 0.000000 0.649701
vt 0.007806 0.649701
vt 0.008266 0.660551
vt 0.001764 0.660523
vt 0.668276 0.358510
vt 0.668948 0.369359
vt 0.666279 0.350704
vt 0.009871 0.668357
vt 0.005137 0.668357
vt 0.028527 0.660598
vt 0.017340 0.660950
vt 0.017629 0.649701
vt 0.028527 0.670422
vt 0.017705 0.669944
vt 0.676498 0.028352
vt 0.674668 0.017541
vt 0.017677 0.676438
vt 0.009871 0.673090
vt 0.017629 0.028527
vt 0.017277 0.017340
vt 0.028527 0.017629
vt 0.007806 0.028527
vt 0.008284 0.017705
vt 0.000000 0.028527
vt 0.001789 0.017677
vt 0.017677 0.008266
vt 0.028527 0.007806
vt 0.009871 0.009871
vt 0.005138 0.009871
vt 0.659799 0.651419
vt 0.659902 0.662606
vt 0.648982 0.662316
vt 0.668948 0.651420
vt 0.668261 0.662241
vt 0.365743 0.001723
vt 0.365790 0.009529
vt 0.354944 0.010055
vt 0.354932 0.003553
vt 0.658933 0.671681
vt 0.648379 0.672140
vt 0.666279 0.670075
vt 0.347148 0.011708
vt 0.347119 0.006974
vt 0.355020 0.030315
vt 0.354600 0.019132
vt 0.365850 0.019352
vt 0.345197 0.030375
vt 0.345608 0.019551
vt 0.028527 0.000000
vt 0.017705 0.001764
vt 0.339114 0.019563
vt 0.342414 0.011737
vt 0.310587 0.000000
vt 0.339114 0.310587
vt 0.000000 0.367640
vt 0.310587 0.339114
vt -0.000000 0.310587
vt 0.028527 0.678228
vt 0.339114 0.367640
vt 0.028527 0.339114
s 0
usemtl Material
f 138/1/1 28/2/1 84/3/1 190/4/1
f 192/5/2 163/6/2 110/7/2 136/8/2
f 83/9/3 57/10/3 164/11/3 191/12/3
f 2/13/4 111/14/4 165/15/4 56/16/4
f 30/17/5 3/18/5 55/19/5 82/20/5
f 1/21/6 4/22/6 7/23/6 6/24/6
f 4/22/7 5/25/7 8/26/7 7/23/7
f 5/25/8 17/27/8 18/28/8 8/26/8
f 6/24/9 7/23/9 10/29/9 9/30/9
f 7/23/10 8/26/10 11/31/10 10/29/10
f 8/26/11 18/28/11 19/32/11 11/31/11
f 2/13/12 12/33/12 15/34/12 14/35/12
f 12/33/13 13/36/13 16/37/13 15/34/13
f 13/38/14 25/39/14 26/40/14 16/41/14
f 14/35/15 15/34/15 18/42/15 17/43/15
f 15/34/16 16/37/16 19/44/16 18/42/16
f 16/37/17 26/45/17 27/46/17 19/44/17
f 3/18/18 20/47/18 23/48/18 22/49/18
f 20/47/19 21/50/19 24/51/19 23/48/19
f 21/52/20 9/30/20 10/29/20 24/53/20
f 22/49/21 23/48/21 26/40/21 25/39/21
f 23/48/22 24/51/22 27/54/22 26/40/22
f 24/53/23 10/29/23 11/31/23 27/55/23
f 11/31/24 19/32/24 27/55/24
f 28/2/25 31/56/25 34/57/25 33/58/25
f 31/56/26 32/59/26 35/60/26 34/57/26
f 32/61/27 44/62/27 45/63/27 35/64/27
f 33/58/28 34/57/28 37/65/28 36/66/28
f 34/57/29 35/60/29 38/67/29 37/65/29
f 35/64/30 45/63/30 46/68/30 38/69/30
f 29/70/31 39/71/31 42/72/31 41/73/31
f 39/71/32 40/74/32 43/75/32 42/72/32
f 40/74/33 52/76/33 53/77/33 43/75/33
f 41/73/34 42/72/34 45/63/34 44/62/34
f 42/72/35 43/75/35 46/68/35 45/63/35
f 43/75/36 53/77/36 54/78/36 46/68/36
f 30/17/37 47/79/37 50/80/37 49/81/37
f 47/79/38 48/82/38 51/83/38 50/80/38
f 48/84/39 36/66/39 37/65/39 51/85/39
f 49/81/40 50/80/40 53/86/40 52/87/40
f 50/80/41 51/83/41 54/88/41 53/86/41
f 51/83/42 37/89/42 38/90/42 54/88/42
f 38/69/43 46/68/43 54/78/43
f 55/19/44 58/91/44 61/92/44 60/93/44
f 58/91/45 59/94/45 62/95/45 61/92/45
f 59/96/46 71/97/46 72/98/46 62/99/46
f 60/93/47 61/92/47 64/100/47 63/101/47
f 61/92/48 62/95/48 65/102/48 64/100/48
f 62/95/49 72/103/49 73/104/49 65/102/49
f 56/16/50 66/105/50 69/106/50 68/107/50
f 66/105/51 67/108/51 70/109/51 69/106/51
f 67/110/52 79/111/52 80/112/52 70/113/52
f 68/107/53 69/106/53 72/98/53 71/97/53
f 69/106/54 70/109/54 73/114/54 72/98/54
f 70/113/55 80/112/55 81/115/55 73/116/55
f 57/10/56 74/117/56 77/118/56 76/119/56
f 74/117/57 75/120/57 78/121/57 77/118/57
f 75/120/58 63/122/58 64/123/58 78/121/58
f 76/119/59 77/118/59 80/112/59 79/111/59
f 77/118/60 78/121/60 81/115/60 80/112/60
f 78/121/61 64/123/61 65/124/61 81/115/61
f 65/124/62 73/116/62 81/115/62
f 82/20/63 85/125/63 88/126/63 87/127/63
f 85/125/64 86/128/64 89/129/64 88/126/64
f 86/130/65 98/131/65 99/132/65 89/133/65
f 87/127/66 88/126/66 91/134/66 90/135/66
f 88/126/67 89/129/67 92/136/67 91/134/67
f 89/133/68 99/132/68 100/137/68 92/138/68
f 83/9/69 93/139/69 96/140/69 95/141/69
f 93/139/70 94/142/70 97/143/70 96/140/70
f 94/142/71 106/144/71 107/145/71 97/143/71
f 95/141/72 96/140/72 99/132/72 98/131/72
f 96/140/73 97/143/73 100/137/73 99/132/73
f 97/143/74 107/145/74 108/146/74 100/137/74
f 84/3/75 101/147/75 104/148/75 103/149/75
f 101/147/76 102/150/76 105/151/76 104/148/76
f 102/152/77 90/135/77 91/134/77 105/153/77
f 103/149/78 104/148/78 107/154/78 106/155/78
f 104/148/79 105/151/79 108/156/79 107/154/79
f 105/151/80 91/157/80 92/158/80 108/156/80
f 92/138/81 100/137/81 108/146/81
f 109/159/82 112/160/82 115/161/82 114/162/82
f 112/160/83 113/163/83 116/164/83 115/161/83
f 113/165/84 125/166/84 126/167/84 116/168/84
f 114/162/85 115/161/85 118/169/85 117/170/85
f 115/161/86 116/164/86 119/171/86 118/169/86
f 116/168/87 126/167/87 127/172/87 119/173/87
f 110/7/88 120/174/88 123/175/88 122/176/88
f 120/174/89 121/177/89 124/178/89 123/175/89
f 121/179/90 133/180/90 134/181/90 124/182/90
f 122/176/91 123/175/91 126/167/91 125/166/91
f 123/175/92 124/178/92 127/172/92 126/167/92
f 124/178/93 134/183/93 135/184/93 127/172/93
f 111/14/94 128/185/94 131/186/94 130/187/94
f 128/185/95 129/188/95 132/189/95 131/186/95
f 129/188/96 117/190/96 118/191/96 132/189/96
f 130/187/97 131/186/97 134/181/97 133/180/97
f 131/186/98 132/189/98 135/192/98 134/181/98
f 132/189/99 118/191/99 119/193/99 135/192/99
f 119/193/100 127/194/100 135/192/100
f 136/8/101 139/195/101 142/196/101 141/197/101
f 139/195/102 140/198/102 143/199/102 142/196/102
f 140/198/103 152/200/103 153/201/103 143/199/103
f 141/197/104 142/196/104 145/202/104 144/203/104
f 142/196/105 143/199/105 146/204/105 145/202/105
f 143/199/106 153/201/106 154/205/106 146/204/106
f 137/206/107 147/207/107 150/208/107 149/209/107
f 147/207/108 148/210/108 151/211/108 150/208/108
f 148/212/109 160/213/109 161/214/109 151/215/109
f 149/209/110 150/208/110 153/216/110 152/217/110
f 150/208/111 151/211/111 154/218/111 153/216/111
f 151/215/112 161/214/112 162/219/112 154/220/112
f 138/1/113 155/221/113 158/222/113 157/223/113
f 155/221/114 156/224/114 159/225/114 158/222/114
f 156/226/115 144/203/115 145/202/115 159/227/115
f 157/223/116 158/222/116 161/214/116 160/213/116
f 158/222/117 159/225/117 162/219/117 161/214/117
f 159/225/118 145/228/118 146/229/118 162/219/118
f 146/229/119 154/220/119 162/219/119
f 163/6/120 166/230/120 169/231/120 168/232/120
f 166/230/121 167/233/121 170/234/121 169/231/121
f 167/233/122 179/235/122 180/236/122 170/234/122
f 168/232/123 169/231/123 172/237/123 171/238/123
f 169/231/124 170/234/124 173/239/124 172/237/124
f 170/234/125 180/236/125 181/240/125 173/239/125
f 164/11/126 174/241/126 177/242/126 176/243/126
f 174/241/127 175/244/127 178/245/127 177/242/127
f 175/246/128 187/247/128 188/248/128 178/249/128
f 176/243/129 177/242/129 180/250/129 179/251/129
f 177/242/130 178/245/130 181/252/130 180/250/130
f 178/249/131 188/248/131 189/253/131 181/254/131
f 165/15/132 182/255/132 185/256/132 184/257/132
f 182/255/133 183/258/133 186/259/133 185/256/133
f 183/260/134 171/238/134 172/237/134 186/261/134
f 184/257/135 185/256/135 188/248/135 187/247/135
f 185/256/136 186/259/136 189/253/136 188/248/136
f 186/259/137 172/262/137 173/263/137 189/253/137
f 173/263/138 181/254/138 189/253/138
f 190/4/139 193/264/139 196/265/139 195/266/139
f 193/264/140 194/267/140 197/268/140 196/265/140
f 194/267/141 206/269/141 207/270/141 197/268/141
f 195/266/142 196/265/142 199/271/142 198/272/142
f 196/265/143 197/268/143 200/273/143 199/271/143
f 197/268/144 207/270/144 208/274/144 200/273/144
f 191/12/145 201/275/145 204/276/145 203/277/145
f 201/275/146 202/278/146 205/279/146 204/276/146
f 202/280/147 214/281/147 215/282/147 205/283/147
f 203/277/148 204/276/148 207/284/148 206/285/148
f 204/276/149 205/279/149 208/286/149 207/284/149
f 205/283/150 215/282/150 216/287/150 208/288/150
f 192/5/151 209/289/151 212/290/151 211/291/151
f 209/289/152 210/292/152 213/293/152 212/290/152
f 210/294/153 198/272/153 199/271/153 213/295/153
f 211/291/154 212/290/154 215/282/154 214/281/154
f 212/290/155 213/293/155 216/287/155 215/282/155
f 213/293/156 199/296/156 200/297/156 216/287/156
f 200/297/157 208/288/157 216/287/157
f 138/1/158 190/4/158 195/266/158 155/221/158
f 155/221/159 195/266/159 198/272/159 156/224/159
f 156/224/160 198/272/160 210/294/160 144/298/160
f 144/203/161 210/292/161 209/289/161 141/197/161
f 141/197/162 209/289/162 192/5/162 136/8/162
f 28/2/163 138/1/163 157/223/163 31/56/163
f 31/56/164 157/223/164 160/213/164 32/59/164
f 32/59/165 160/213/165 148/212/165 44/299/165
f 44/62/166 148/210/166 147/207/166 41/73/166
f 41/73/167 147/207/167 137/206/167 29/70/167
f 3/18/168 30/17/168 49/81/168 20/47/168
f 20/47/169 49/81/169 52/87/169 21/50/169
f 21/52/170 52/76/170 40/74/170 9/30/170
f 9/30/171 40/74/171 39/71/171 6/24/171
f 6/24/172 39/71/172 29/70/172 1/21/172
f 191/12/173 164/11/173 176/243/173 201/275/173
f 201/275/174 176/243/174 179/251/174 202/278/174
f 202/280/175 179/235/175 167/233/175 214/281/175
f 214/281/176 167/233/176 166/230/176 211/291/176
f 211/291/177 166/230/177 163/6/177 192/5/177
f 57/10/178 83/9/178 95/141/178 74/117/178
f 74/117/179 95/141/179 98/131/179 75/120/179
f 75/120/180 98/131/180 86/130/180 63/122/180
f 63/101/181 86/128/181 85/125/181 60/93/181
f 60/93/182 85/125/182 82/20/182 55/19/182
f 109/159/183 137/206/183 149/209/183 112/160/183
f 112/160/184 149/209/184 152/217/184 113/163/184
f 113/165/185 152/200/185 140/198/185 125/166/185
f 125/166/186 140/198/186 139/195/186 122/176/186
f 122/176/187 139/195/187 136/8/187 110/7/187
f 56/16/188 165/15/188 184/257/188 66/105/188
f 66/105/189 184/257/189 187/247/189 67/108/189
f 67/108/190 187/247/190 175/246/190 79/300/190
f 79/111/191 175/244/191 174/241/191 76/119/191
f 76/119/192 174/241/192 164/11/192 57/10/192
f 2/13/193 56/16/193 68/107/193 12/33/193
f 12/33/194 68/107/194 71/97/194 13/36/194
f 13/36/195 71/97/195 59/96/195 25/301/195
f 25/39/196 59/94/196 58/91/196 22/49/196
f 22/49/197 58/91/197 55/19/197 3/18/197
f 190/4/198 84/3/198 103/149/198 193/264/198
f 193/264/199 103/149/199 106/155/199 194/267/199
f 194/267/200 106/155/200 94/302/200 206/269/200
f 206/285/201 94/142/201 93/139/201 203/277/201
f 203/277/202 93/139/202 83/9/202 191/12/202
f 165/15/203 111/14/203 130/187/203 182/255/203
f 182/255/204 130/187/204 133/180/204 183/258/204
f 183/258/205 133/180/205 121/179/205 171/303/205
f 171/238/206 121/177/206 120/174/206 168/232/206
f 168/232/207 120/174/207 110/7/207 163/6/207
f 111/14/208 2/13/208 14/35/208 128/185/208
f 128/185/209 14/35/209 17/43/209 129/188/209
f 129/188/210 17/43/210 5/304/210 117/190/210
f 117/170/211 5/25/211 4/22/211 114/162/211
f 114/162/212 4/22/212 1/21/212 109/159/212
f 84/3/213 28/2/213 33/58/213 101/147/213
f 101/147/214 33/58/214 36/66/214 102/150/214
f 102/150/215 36/66/215 48/84/215 90/305/215
f 90/135/216 48/82/216 47/79/216 87/127/216
f 87/127/217 47/79/217 30/17/217 82/20/217
f 137/206/218 109/159/218 1/21/218 29/70/218
