# Blender 4.4.3
# www.blender.org
mtllib shard.mtl
o Icosphere
v 0.000000 -1.404816 0.000000
v 0.441773 -0.667772 0.320963
v -0.168738 -0.667772 0.519333
v -0.546064 -0.667772 -0.000000
v -0.168738 -0.667772 -0.519333
v 0.441773 -0.667772 -0.320963
v 0.276385 0.447215 0.850640
v -0.723600 0.447215 0.525720
v -0.723600 0.447215 -0.525720
v 0.276385 0.447215 -0.850640
v 0.894425 0.447215 0.000000
v 0.000000 1.598396 0.000000
vn 0.2651 -0.5141 0.8157
vn 0.8577 -0.5141 -0.0000
vn -0.6939 -0.5141 0.5042
vn -0.6939 -0.5141 -0.5042
vn 0.2651 -0.5141 -0.8157
vn 0.9266 -0.3762 -0.0000
vn 0.2863 -0.3761 0.8812
vn -0.7496 -0.3761 0.5446
vn -0.7496 -0.3761 -0.5446
vn 0.2863 -0.3761 -0.8812
vn 0.7989 -0.1573 0.5805
vn -0.3052 -0.1572 0.9392
vn -0.9876 -0.1572 -0.0000
vn -0.3052 -0.1572 -0.9392
vn 0.7989 -0.1573 -0.5805
vn 0.6849 0.5322 0.4976
vn -0.2616 0.5322 0.8052
vn -0.8466 0.5322 -0.0000
vn -0.2616 0.5322 -0.8052
vn 0.6849 0.5322 -0.4976
vt 0.380226 0.710303
vt 0.254878 0.530295
vt 0.379177 0.515417
vt 0.251817 0.528956
vt 0.128414 0.710302
vt 0.127366 0.515416
vt 0.503633 0.528958
vt 0.503633 0.472613
vt 0.522718 0.254331
vt 0.661443 0.320604
vt 0.003064 0.530296
vt 0.251817 0.244341
vt 0.251818 0.245697
vt 0.503633 0.244343
vt 0.715942 0.028189
vt -0.000000 0.245698
vt 0.694443 0.966111
vt 0.503633 0.821755
vt 0.738508 0.730940
vt 0.503633 -0.000000
vt 0.871285 0.175635
vt 0.503633 0.472613
vt 0.376408 0.000000
vt 0.973381 0.730942
vt 0.738508 0.821754
vt 0.738508 0.472613
vt 1.000000 0.584004
vt 0.124586 -0.000000
s 0
f 1/1/1 2/2/1 3/3/1
f 2/4/2 1/5/2 6/6/2
f 1/1/3 3/3/3 4/7/3
f 1/8/4 4/9/4 5/10/4
f 1/5/5 5/11/5 6/6/5
f 2/4/6 6/6/6 11/12/6
f 3/3/7 2/2/7 7/13/7
f 4/7/8 3/3/8 8/14/8
f 5/10/9 4/9/9 9/15/9
f 6/6/10 5/11/10 10/16/10
f 2/17/11 11/18/11 7/19/11
f 3/3/12 7/13/12 8/14/12
f 4/9/13 8/20/13 9/15/13
f 5/10/14 9/15/14 10/21/14
f 6/6/15 10/16/15 11/12/15
f 7/19/16 11/18/16 12/22/16
f 8/14/17 7/13/17 12/23/17
f 9/24/18 8/25/18 12/26/18
f 10/27/19 9/24/19 12/26/19
f 11/12/20 10/16/20 12/28/20
